<svg xmlns="http://www.w3.org/2000/svg" xmlns:xlink="http://www.w3.org/1999/xlink" width="500" zoomAndPan="magnify" viewBox="0 0 375 374.999991" height="500" preserveAspectRatio="xMidYMid meet" version="1.0"><path fill="#f7f7f7" d="M 177.074219 246.796875 L 157.644531 246.796875 C 150.09375 218.035156 125.886719 208.824219 116.089844 179.554688 C 109.648438 160.277344 109.960938 139.757812 116.027344 121.71875 C 125.917969 138.527344 144.4375 149.003906 163.792969 153.734375 C 180.207031 157.738281 185.742188 168.703125 187.496094 183.71875 C 189.269531 168.699219 194.800781 157.734375 211.214844 153.734375 C 230.578125 149.003906 249.089844 138.527344 258.980469 121.71875 C 265.046875 139.757812 265.359375 160.277344 258.914062 179.554688 C 249.117188 208.824219 224.910156 218.035156 217.359375 246.796875 L 197.9375 246.796875 C 202.667969 190.210938 238.460938 196.214844 245.050781 160.242188 C 221.835938 198.167969 193.722656 176.203125 187.492188 238.988281 C 181.277344 176.207031 153.160156 198.167969 129.933594 160.242188 C 136.546875 196.214844 172.335938 190.210938 177.074219 246.796875 Z M 177.074219 246.796875 " fill-opacity="1" fill-rule="evenodd"/><path fill="#50a6ff" d="M 226.613281 254.054688 L 148.40625 254.054688 L 148.40625 264.238281 C 148.40625 269.835938 153.628906 274.421875 160.003906 274.421875 L 160.15625 274.421875 L 160.15625 284.609375 C 160.15625 293.3125 181.355469 293.328125 188.820312 294.792969 L 173.558594 294.792969 L 173.558594 301.347656 C 173.558594 304.960938 176.929688 307.902344 181.027344 307.902344 L 193.976562 307.902344 C 198.09375 307.902344 201.445312 304.957031 201.445312 301.347656 L 201.445312 294.792969 L 203.269531 294.792969 C 209.648438 294.792969 214.855469 290.203125 214.855469 284.609375 L 214.867188 274.421875 L 199.3125 274.421875 C 206.84375 272.945312 226.613281 273.121094 226.613281 264.238281 Z M 226.613281 254.054688 " fill-opacity="1" fill-rule="evenodd"/><path fill="#50a6ff" d="M 158.332031 137.289062 C 166.023438 130.390625 173.574219 113.257812 175.1875 105.332031 C 175.199219 105.21875 175.21875 105.121094 175.253906 105.007812 C 176.132812 100.433594 176.328125 94.917969 175.335938 88.3125 C 174.976562 85.953125 176.585938 83.757812 178.949219 83.417969 C 181.308594 83.058594 183.488281 84.671875 183.84375 87.03125 C 184.59375 91.898438 184.757812 96.269531 184.511719 100.246094 C 192.191406 98.664062 204.785156 97.691406 211.601562 105.792969 C 213.132812 107.597656 212.902344 110.3125 211.082031 111.832031 C 209.277344 113.363281 206.5625 113.132812 205.042969 111.3125 C 200.046875 105.375 188.042969 107.992188 183.0625 109.394531 C 181.0625 119.511719 169.820312 138.625 164.578125 144.921875 C 180.457031 149.394531 187.925781 157.726562 187.925781 157.726562 C 191.128906 153.417969 198.175781 150.683594 205.429688 148.257812 C 205.800781 133.261719 199.097656 127.792969 199.082031 127.773438 C 197.390625 126.34375 197.175781 123.820312 198.613281 122.128906 C 200.046875 120.441406 202.582031 120.226562 204.277344 121.660156 C 204.308594 121.675781 212.929688 128.753906 213.453125 145.644531 C 217.164062 144.40625 220.984375 143.054688 224.746094 141.382812 C 235.433594 136.664062 246.871094 128.1875 251.316406 118.035156 C 255.332031 108.90625 248.175781 102.011719 240.398438 99.132812 C 240.152344 99.050781 239.894531 98.933594 239.664062 98.824219 C 237.464844 102.207031 234.03125 105.835938 228.742188 108.226562 C 226.578125 109.199219 224.039062 108.226562 223.066406 106.0625 C 222.089844 103.898438 223.050781 101.359375 225.210938 100.382812 C 231.101562 97.730469 233.492188 92.902344 234.402344 90.316406 C 234.402344 89.953125 234.4375 89.601562 234.5 89.226562 C 234.792969 86.964844 234.238281 83.921875 233.261719 81.886719 C 231.046875 77.367188 226.023438 75.65625 221.238281 75.039062 C 221.332031 79.53125 220.40625 85.972656 215.574219 91.941406 C 214.097656 93.78125 211.375 94.058594 209.535156 92.574219 C 207.699219 91.078125 207.40625 88.375 208.902344 86.523438 C 213.851562 80.402344 212.695312 73.683594 212.300781 72.027344 C 212.203125 71.914062 212.105469 71.816406 212.007812 71.703125 C 210.605469 70.203125 208.074219 68.953125 206.152344 68.433594 C 201.011719 67.03125 195.675781 68.824219 191.152344 71.429688 C 194.019531 74.777344 197.0625 79.984375 197.335938 87.066406 C 197.433594 89.441406 195.578125 91.441406 193.21875 91.539062 C 190.84375 91.621094 188.839844 89.78125 188.746094 87.40625 C 188.410156 78.617188 181.886719 74.308594 181.445312 74.015625 C 180.941406 73.867188 180.4375 73.6875 179.949219 73.445312 C 176.367188 71.785156 171.082031 70.988281 167.210938 71.441406 C 157.496094 72.582031 152.8125 81.054688 150.191406 89.613281 C 150.074219 89.953125 149.964844 90.296875 149.816406 90.609375 C 153.933594 94.269531 159.347656 101.410156 156.925781 112.589844 C 156.421875 114.917969 154.125 116.394531 151.796875 115.890625 C 149.488281 115.386719 148.007812 113.109375 148.511719 110.785156 C 152.984375 90.054688 127.40625 91.703125 121.457031 111.957031 C 118.0625 123.570312 146.675781 147.730469 158.332031 137.289062 Z M 158.332031 137.289062 " fill-opacity="1" fill-rule="evenodd"/></svg>