<svg xmlns="http://www.w3.org/2000/svg" xmlns:xlink="http://www.w3.org/1999/xlink" width="1920" zoomAndPan="magnify" viewBox="0 0 1440 809.999993" height="1080" preserveAspectRatio="xMidYMid meet" version="1.0"><defs><clipPath id="3f943e3348"><path d="M 465.832031 149.140625 L 1002.617188 149.140625 L 1002.617188 685.929688 L 465.832031 685.929688 Z M 465.832031 149.140625 " clip-rule="nonzero"/></clipPath><clipPath id="19f2330ddb"><path d="M 734.226562 149.140625 C 585.996094 149.140625 465.832031 269.304688 465.832031 417.535156 C 465.832031 565.765625 585.996094 685.929688 734.226562 685.929688 C 882.457031 685.929688 1002.617188 565.765625 1002.617188 417.535156 C 1002.617188 269.304688 882.457031 149.140625 734.226562 149.140625 Z M 734.226562 149.140625 " clip-rule="nonzero"/></clipPath><clipPath id="acd8040c75"><path d="M 734.34375 70.886719 L 1080.09375 70.886719 L 1080.09375 762.386719 L 734.34375 762.386719 Z M 734.34375 70.886719 " clip-rule="nonzero"/></clipPath><clipPath id="27c0f778a3"><path d="M 734.1875 151.972656 L 734.1875 70.609375 C 925.253906 70.609375 1080.09375 225.449219 1080.09375 416.476562 C 1080.09375 607.503906 925.253906 762.382812 734.1875 762.382812 L 734.1875 681.019531 C 880.265625 681.019531 998.730469 562.59375 998.730469 416.476562 C 998.730469 270.398438 880.304688 151.972656 734.1875 151.972656 Z M 734.1875 151.972656 " clip-rule="nonzero"/></clipPath><linearGradient x1="47.075766" gradientTransform="matrix(-3.80911, 0, 0, -3.80911, 1080.093377, 762.38209)" y1="182.073019" x2="44.835159" gradientUnits="userSpaceOnUse" y2="-0.550076" id="e5604d13df"><stop stop-opacity="1" stop-color="rgb(36.18927%, 79.344177%, 90.423584%)" offset="0"/><stop stop-opacity="1" stop-color="rgb(36.192322%, 79.011536%, 90.431213%)" offset="0.00390625"/><stop stop-opacity="1" stop-color="rgb(36.195374%, 78.68042%, 90.440369%)" offset="0.0078125"/><stop stop-opacity="1" stop-color="rgb(36.198425%, 78.347778%, 90.447998%)" offset="0.0117188"/><stop stop-opacity="1" stop-color="rgb(36.201477%, 78.016663%, 90.455627%)" offset="0.015625"/><stop stop-opacity="1" stop-color="rgb(36.204529%, 77.684021%, 90.463257%)" offset="0.0195313"/><stop stop-opacity="1" stop-color="rgb(36.209106%, 77.352905%, 90.472412%)" offset="0.0234375"/><stop stop-opacity="1" stop-color="rgb(36.212158%, 77.020264%, 90.480042%)" offset="0.0273438"/><stop stop-opacity="1" stop-color="rgb(36.21521%, 76.689148%, 90.489197%)" offset="0.03125"/><stop stop-opacity="1" stop-color="rgb(36.218262%, 76.356506%, 90.496826%)" offset="0.0351563"/><stop stop-opacity="1" stop-color="rgb(36.222839%, 76.025391%, 90.505981%)" offset="0.0390625"/><stop stop-opacity="1" stop-color="rgb(36.225891%, 75.692749%, 90.513611%)" offset="0.0429688"/><stop stop-opacity="1" stop-color="rgb(36.228943%, 75.361633%, 90.522766%)" offset="0.046875"/><stop stop-opacity="1" stop-color="rgb(36.231995%, 75.028992%, 90.530396%)" offset="0.0507813"/><stop stop-opacity="1" stop-color="rgb(36.235046%, 74.697876%, 90.539551%)" offset="0.0546875"/><stop stop-opacity="1" stop-color="rgb(36.238098%, 74.36676%, 90.54718%)" offset="0.0585938"/><stop stop-opacity="1" stop-color="rgb(36.242676%, 74.035645%, 90.556335%)" offset="0.0625"/><stop stop-opacity="1" stop-color="rgb(36.245728%, 73.703003%, 90.563965%)" offset="0.0664063"/><stop stop-opacity="1" stop-color="rgb(36.248779%, 73.371887%, 90.57312%)" offset="0.0703125"/><stop stop-opacity="1" stop-color="rgb(36.251831%, 73.039246%, 90.58075%)" offset="0.0742188"/><stop stop-opacity="1" stop-color="rgb(36.256409%, 72.70813%, 90.589905%)" offset="0.078125"/><stop stop-opacity="1" stop-color="rgb(36.25946%, 72.375488%, 90.597534%)" offset="0.0820313"/><stop stop-opacity="1" stop-color="rgb(36.262512%, 72.044373%, 90.606689%)" offset="0.0859375"/><stop stop-opacity="1" stop-color="rgb(36.265564%, 71.711731%, 90.614319%)" offset="0.0898438"/><stop stop-opacity="1" stop-color="rgb(36.268616%, 71.380615%, 90.623474%)" offset="0.09375"/><stop stop-opacity="1" stop-color="rgb(36.271667%, 71.047974%, 90.631104%)" offset="0.0976563"/><stop stop-opacity="1" stop-color="rgb(36.276245%, 70.716858%, 90.640259%)" offset="0.101563"/><stop stop-opacity="1" stop-color="rgb(36.279297%, 70.384216%, 90.647888%)" offset="0.105469"/><stop stop-opacity="1" stop-color="rgb(36.282349%, 70.053101%, 90.657043%)" offset="0.109375"/><stop stop-opacity="1" stop-color="rgb(36.2854%, 69.720459%, 90.664673%)" offset="0.113281"/><stop stop-opacity="1" stop-color="rgb(36.289978%, 69.389343%, 90.673828%)" offset="0.117188"/><stop stop-opacity="1" stop-color="rgb(36.29303%, 69.056702%, 90.681458%)" offset="0.121094"/><stop stop-opacity="1" stop-color="rgb(36.296082%, 68.725586%, 90.690613%)" offset="0.125"/><stop stop-opacity="1" stop-color="rgb(36.299133%, 68.392944%, 90.698242%)" offset="0.128906"/><stop stop-opacity="1" stop-color="rgb(36.302185%, 68.061829%, 90.707397%)" offset="0.132812"/><stop stop-opacity="1" stop-color="rgb(36.305237%, 67.729187%, 90.715027%)" offset="0.136719"/><stop stop-opacity="1" stop-color="rgb(36.309814%, 67.398071%, 90.724182%)" offset="0.140625"/><stop stop-opacity="1" stop-color="rgb(36.312866%, 67.06543%, 90.731812%)" offset="0.144531"/><stop stop-opacity="1" stop-color="rgb(36.315918%, 66.734314%, 90.740967%)" offset="0.148438"/><stop stop-opacity="1" stop-color="rgb(36.31897%, 66.401672%, 90.748596%)" offset="0.152344"/><stop stop-opacity="1" stop-color="rgb(36.322021%, 66.070557%, 90.757751%)" offset="0.15625"/><stop stop-opacity="1" stop-color="rgb(36.325073%, 65.737915%, 90.765381%)" offset="0.160156"/><stop stop-opacity="1" stop-color="rgb(36.329651%, 65.406799%, 90.774536%)" offset="0.164063"/><stop stop-opacity="1" stop-color="rgb(36.332703%, 65.074158%, 90.782166%)" offset="0.167969"/><stop stop-opacity="1" stop-color="rgb(36.335754%, 64.743042%, 90.791321%)" offset="0.171875"/><stop stop-opacity="1" stop-color="rgb(36.338806%, 64.4104%, 90.79895%)" offset="0.175781"/><stop stop-opacity="1" stop-color="rgb(36.343384%, 64.079285%, 90.808105%)" offset="0.179688"/><stop stop-opacity="1" stop-color="rgb(36.346436%, 63.746643%, 90.815735%)" offset="0.183594"/><stop stop-opacity="1" stop-color="rgb(36.349487%, 63.415527%, 90.82489%)" offset="0.1875"/><stop stop-opacity="1" stop-color="rgb(36.352539%, 63.084412%, 90.83252%)" offset="0.191406"/><stop stop-opacity="1" stop-color="rgb(36.355591%, 62.753296%, 90.841675%)" offset="0.195313"/><stop stop-opacity="1" stop-color="rgb(36.358643%, 62.420654%, 90.849304%)" offset="0.199219"/><stop stop-opacity="1" stop-color="rgb(36.36322%, 62.089539%, 90.858459%)" offset="0.203125"/><stop stop-opacity="1" stop-color="rgb(36.366272%, 61.756897%, 90.866089%)" offset="0.207031"/><stop stop-opacity="1" stop-color="rgb(36.369324%, 61.425781%, 90.875244%)" offset="0.210938"/><stop stop-opacity="1" stop-color="rgb(36.372375%, 61.09314%, 90.882874%)" offset="0.214844"/><stop stop-opacity="1" stop-color="rgb(36.376953%, 60.762024%, 90.892029%)" offset="0.21875"/><stop stop-opacity="1" stop-color="rgb(36.380005%, 60.429382%, 90.899658%)" offset="0.222656"/><stop stop-opacity="1" stop-color="rgb(36.383057%, 60.098267%, 90.908813%)" offset="0.226563"/><stop stop-opacity="1" stop-color="rgb(36.386108%, 59.765625%, 90.916443%)" offset="0.230469"/><stop stop-opacity="1" stop-color="rgb(36.38916%, 59.434509%, 90.925598%)" offset="0.234375"/><stop stop-opacity="1" stop-color="rgb(36.392212%, 59.101868%, 90.933228%)" offset="0.238281"/><stop stop-opacity="1" stop-color="rgb(36.39679%, 58.770752%, 90.942383%)" offset="0.242188"/><stop stop-opacity="1" stop-color="rgb(36.399841%, 58.43811%, 90.950012%)" offset="0.246094"/><stop stop-opacity="1" stop-color="rgb(36.402893%, 58.106995%, 90.959167%)" offset="0.25"/><stop stop-opacity="1" stop-color="rgb(36.405945%, 57.774353%, 90.966797%)" offset="0.253906"/><stop stop-opacity="1" stop-color="rgb(36.410522%, 57.443237%, 90.975952%)" offset="0.257813"/><stop stop-opacity="1" stop-color="rgb(36.413574%, 57.110596%, 90.983582%)" offset="0.261719"/><stop stop-opacity="1" stop-color="rgb(36.416626%, 56.77948%, 90.992737%)" offset="0.265625"/><stop stop-opacity="1" stop-color="rgb(36.419678%, 56.446838%, 91.000366%)" offset="0.269531"/><stop stop-opacity="1" stop-color="rgb(36.422729%, 56.115723%, 91.009521%)" offset="0.273438"/><stop stop-opacity="1" stop-color="rgb(36.425781%, 55.783081%, 91.017151%)" offset="0.277344"/><stop stop-opacity="1" stop-color="rgb(36.430359%, 55.451965%, 91.026306%)" offset="0.28125"/><stop stop-opacity="1" stop-color="rgb(36.433411%, 55.119324%, 91.033936%)" offset="0.285156"/><stop stop-opacity="1" stop-color="rgb(36.436462%, 54.788208%, 91.043091%)" offset="0.289063"/><stop stop-opacity="1" stop-color="rgb(36.439514%, 54.455566%, 91.05072%)" offset="0.292969"/><stop stop-opacity="1" stop-color="rgb(36.444092%, 54.124451%, 91.059875%)" offset="0.296875"/><stop stop-opacity="1" stop-color="rgb(36.447144%, 53.791809%, 91.067505%)" offset="0.300781"/><stop stop-opacity="1" stop-color="rgb(36.450195%, 53.460693%, 91.07666%)" offset="0.304688"/><stop stop-opacity="1" stop-color="rgb(36.453247%, 53.128052%, 91.08429%)" offset="0.308594"/><stop stop-opacity="1" stop-color="rgb(36.456299%, 52.796936%, 91.093445%)" offset="0.3125"/><stop stop-opacity="1" stop-color="rgb(36.459351%, 52.464294%, 91.101074%)" offset="0.316406"/><stop stop-opacity="1" stop-color="rgb(36.463928%, 52.133179%, 91.110229%)" offset="0.320313"/><stop stop-opacity="1" stop-color="rgb(36.46698%, 51.802063%, 91.117859%)" offset="0.324219"/><stop stop-opacity="1" stop-color="rgb(36.470032%, 51.470947%, 91.127014%)" offset="0.328125"/><stop stop-opacity="1" stop-color="rgb(36.473083%, 51.138306%, 91.134644%)" offset="0.332031"/><stop stop-opacity="1" stop-color="rgb(36.477661%, 50.80719%, 91.143799%)" offset="0.335938"/><stop stop-opacity="1" stop-color="rgb(36.480713%, 50.474548%, 91.151428%)" offset="0.339844"/><stop stop-opacity="1" stop-color="rgb(36.483765%, 50.143433%, 91.160583%)" offset="0.34375"/><stop stop-opacity="1" stop-color="rgb(36.486816%, 49.810791%, 91.168213%)" offset="0.347656"/><stop stop-opacity="1" stop-color="rgb(36.489868%, 49.479675%, 91.177368%)" offset="0.351563"/><stop stop-opacity="1" stop-color="rgb(36.49292%, 49.147034%, 91.184998%)" offset="0.355469"/><stop stop-opacity="1" stop-color="rgb(36.497498%, 48.815918%, 91.194153%)" offset="0.359375"/><stop stop-opacity="1" stop-color="rgb(36.500549%, 48.483276%, 91.201782%)" offset="0.363281"/><stop stop-opacity="1" stop-color="rgb(36.503601%, 48.152161%, 91.210938%)" offset="0.367188"/><stop stop-opacity="1" stop-color="rgb(36.506653%, 47.819519%, 91.218567%)" offset="0.371094"/><stop stop-opacity="1" stop-color="rgb(36.509705%, 47.488403%, 91.227722%)" offset="0.375"/><stop stop-opacity="1" stop-color="rgb(36.512756%, 47.155762%, 91.235352%)" offset="0.378906"/><stop stop-opacity="1" stop-color="rgb(36.517334%, 46.824646%, 91.244507%)" offset="0.382813"/><stop stop-opacity="1" stop-color="rgb(36.520386%, 46.492004%, 91.252136%)" offset="0.386719"/><stop stop-opacity="1" stop-color="rgb(36.523438%, 46.160889%, 91.261292%)" offset="0.390625"/><stop stop-opacity="1" stop-color="rgb(36.526489%, 45.828247%, 91.268921%)" offset="0.394531"/><stop stop-opacity="1" stop-color="rgb(36.531067%, 45.497131%, 91.278076%)" offset="0.398438"/><stop stop-opacity="1" stop-color="rgb(36.534119%, 45.16449%, 91.285706%)" offset="0.402344"/><stop stop-opacity="1" stop-color="rgb(36.53717%, 44.833374%, 91.294861%)" offset="0.40625"/><stop stop-opacity="1" stop-color="rgb(36.540222%, 44.500732%, 91.30249%)" offset="0.410156"/><stop stop-opacity="1" stop-color="rgb(36.543274%, 44.169617%, 91.311646%)" offset="0.414062"/><stop stop-opacity="1" stop-color="rgb(36.546326%, 43.836975%, 91.319275%)" offset="0.417969"/><stop stop-opacity="1" stop-color="rgb(36.550903%, 43.505859%, 91.32843%)" offset="0.421875"/><stop stop-opacity="1" stop-color="rgb(36.553955%, 43.173218%, 91.33606%)" offset="0.425781"/><stop stop-opacity="1" stop-color="rgb(36.557007%, 42.842102%, 91.345215%)" offset="0.429688"/><stop stop-opacity="1" stop-color="rgb(36.560059%, 42.50946%, 91.352844%)" offset="0.433594"/><stop stop-opacity="1" stop-color="rgb(36.564636%, 42.178345%, 91.362%)" offset="0.4375"/><stop stop-opacity="1" stop-color="rgb(36.567688%, 41.845703%, 91.369629%)" offset="0.441406"/><stop stop-opacity="1" stop-color="rgb(36.57074%, 41.514587%, 91.378784%)" offset="0.445313"/><stop stop-opacity="1" stop-color="rgb(36.573792%, 41.183472%, 91.386414%)" offset="0.449219"/><stop stop-opacity="1" stop-color="rgb(36.576843%, 40.852356%, 91.395569%)" offset="0.453125"/><stop stop-opacity="1" stop-color="rgb(36.579895%, 40.519714%, 91.403198%)" offset="0.457031"/><stop stop-opacity="1" stop-color="rgb(36.584473%, 40.188599%, 91.412354%)" offset="0.460938"/><stop stop-opacity="1" stop-color="rgb(36.587524%, 39.855957%, 91.419983%)" offset="0.464844"/><stop stop-opacity="1" stop-color="rgb(36.590576%, 39.524841%, 91.429138%)" offset="0.46875"/><stop stop-opacity="1" stop-color="rgb(36.593628%, 39.1922%, 91.436768%)" offset="0.472656"/><stop stop-opacity="1" stop-color="rgb(36.598206%, 38.861084%, 91.445923%)" offset="0.476563"/><stop stop-opacity="1" stop-color="rgb(36.601257%, 38.528442%, 91.453552%)" offset="0.480469"/><stop stop-opacity="1" stop-color="rgb(36.604309%, 38.197327%, 91.461182%)" offset="0.484375"/><stop stop-opacity="1" stop-color="rgb(36.607361%, 37.864685%, 91.468811%)" offset="0.488281"/><stop stop-opacity="1" stop-color="rgb(36.610413%, 37.533569%, 91.477966%)" offset="0.492188"/><stop stop-opacity="1" stop-color="rgb(36.613464%, 37.200928%, 91.485596%)" offset="0.496094"/><stop stop-opacity="1" stop-color="rgb(36.618042%, 36.869812%, 91.494751%)" offset="0.5"/><stop stop-opacity="1" stop-color="rgb(36.621094%, 36.53717%, 91.50238%)" offset="0.503906"/><stop stop-opacity="1" stop-color="rgb(36.624146%, 36.206055%, 91.511536%)" offset="0.507812"/><stop stop-opacity="1" stop-color="rgb(36.627197%, 35.873413%, 91.519165%)" offset="0.511719"/><stop stop-opacity="1" stop-color="rgb(36.631775%, 35.542297%, 91.52832%)" offset="0.515625"/><stop stop-opacity="1" stop-color="rgb(36.634827%, 35.209656%, 91.53595%)" offset="0.519531"/><stop stop-opacity="1" stop-color="rgb(36.637878%, 34.87854%, 91.545105%)" offset="0.523438"/><stop stop-opacity="1" stop-color="rgb(36.64093%, 34.545898%, 91.552734%)" offset="0.527344"/><stop stop-opacity="1" stop-color="rgb(36.643982%, 34.214783%, 91.56189%)" offset="0.53125"/><stop stop-opacity="1" stop-color="rgb(36.647034%, 33.882141%, 91.569519%)" offset="0.535156"/><stop stop-opacity="1" stop-color="rgb(36.651611%, 33.551025%, 91.578674%)" offset="0.539062"/><stop stop-opacity="1" stop-color="rgb(36.654663%, 33.218384%, 91.586304%)" offset="0.542969"/><stop stop-opacity="1" stop-color="rgb(36.657715%, 32.887268%, 91.595459%)" offset="0.546875"/><stop stop-opacity="1" stop-color="rgb(36.660767%, 32.554626%, 91.603088%)" offset="0.550781"/><stop stop-opacity="1" stop-color="rgb(36.665344%, 32.223511%, 91.612244%)" offset="0.554688"/><stop stop-opacity="1" stop-color="rgb(36.668396%, 31.890869%, 91.619873%)" offset="0.558594"/><stop stop-opacity="1" stop-color="rgb(36.671448%, 31.559753%, 91.629028%)" offset="0.5625"/><stop stop-opacity="1" stop-color="rgb(36.6745%, 31.227112%, 91.636658%)" offset="0.566406"/><stop stop-opacity="1" stop-color="rgb(36.677551%, 30.895996%, 91.645813%)" offset="0.570312"/><stop stop-opacity="1" stop-color="rgb(36.680603%, 30.563354%, 91.653442%)" offset="0.574219"/><stop stop-opacity="1" stop-color="rgb(36.685181%, 30.232239%, 91.662598%)" offset="0.578125"/><stop stop-opacity="1" stop-color="rgb(36.688232%, 29.901123%, 91.670227%)" offset="0.582031"/><stop stop-opacity="1" stop-color="rgb(36.691284%, 29.570007%, 91.679382%)" offset="0.585938"/><stop stop-opacity="1" stop-color="rgb(36.694336%, 29.237366%, 91.687012%)" offset="0.589844"/><stop stop-opacity="1" stop-color="rgb(36.698914%, 28.90625%, 91.696167%)" offset="0.59375"/><stop stop-opacity="1" stop-color="rgb(36.701965%, 28.573608%, 91.703796%)" offset="0.597656"/><stop stop-opacity="1" stop-color="rgb(36.705017%, 28.242493%, 91.712952%)" offset="0.601563"/><stop stop-opacity="1" stop-color="rgb(36.708069%, 27.909851%, 91.720581%)" offset="0.605469"/><stop stop-opacity="1" stop-color="rgb(36.711121%, 27.578735%, 91.729736%)" offset="0.609375"/><stop stop-opacity="1" stop-color="rgb(36.714172%, 27.246094%, 91.737366%)" offset="0.613281"/><stop stop-opacity="1" stop-color="rgb(36.71875%, 26.914978%, 91.746521%)" offset="0.617188"/><stop stop-opacity="1" stop-color="rgb(36.721802%, 26.582336%, 91.75415%)" offset="0.621094"/><stop stop-opacity="1" stop-color="rgb(36.724854%, 26.251221%, 91.763306%)" offset="0.625"/><stop stop-opacity="1" stop-color="rgb(36.727905%, 25.918579%, 91.770935%)" offset="0.628906"/><stop stop-opacity="1" stop-color="rgb(36.730957%, 25.587463%, 91.78009%)" offset="0.632813"/><stop stop-opacity="1" stop-color="rgb(36.734009%, 25.254822%, 91.78772%)" offset="0.636719"/><stop stop-opacity="1" stop-color="rgb(36.738586%, 24.923706%, 91.796875%)" offset="0.640625"/><stop stop-opacity="1" stop-color="rgb(36.741638%, 24.591064%, 91.804504%)" offset="0.644531"/><stop stop-opacity="1" stop-color="rgb(36.74469%, 24.259949%, 91.81366%)" offset="0.648438"/><stop stop-opacity="1" stop-color="rgb(36.747742%, 23.927307%, 91.821289%)" offset="0.652344"/><stop stop-opacity="1" stop-color="rgb(36.752319%, 23.596191%, 91.830444%)" offset="0.65625"/><stop stop-opacity="1" stop-color="rgb(36.755371%, 23.26355%, 91.838074%)" offset="0.660156"/><stop stop-opacity="1" stop-color="rgb(36.758423%, 22.932434%, 91.847229%)" offset="0.664063"/><stop stop-opacity="1" stop-color="rgb(36.761475%, 22.599792%, 91.854858%)" offset="0.667969"/><stop stop-opacity="1" stop-color="rgb(36.764526%, 22.268677%, 91.864014%)" offset="0.671875"/><stop stop-opacity="1" stop-color="rgb(36.767578%, 21.936035%, 91.871643%)" offset="0.675781"/><stop stop-opacity="1" stop-color="rgb(36.772156%, 21.604919%, 91.880798%)" offset="0.679688"/><stop stop-opacity="1" stop-color="rgb(36.775208%, 21.272278%, 91.888428%)" offset="0.683594"/><stop stop-opacity="1" stop-color="rgb(36.778259%, 20.941162%, 91.897583%)" offset="0.6875"/><stop stop-opacity="1" stop-color="rgb(36.781311%, 20.608521%, 91.905212%)" offset="0.691406"/><stop stop-opacity="1" stop-color="rgb(36.785889%, 20.277405%, 91.914368%)" offset="0.695313"/><stop stop-opacity="1" stop-color="rgb(36.78894%, 19.944763%, 91.921997%)" offset="0.699219"/><stop stop-opacity="1" stop-color="rgb(36.791992%, 19.613647%, 91.931152%)" offset="0.703125"/><stop stop-opacity="1" stop-color="rgb(36.795044%, 19.281006%, 91.938782%)" offset="0.707031"/><stop stop-opacity="1" stop-color="rgb(36.798096%, 18.94989%, 91.947937%)" offset="0.710938"/><stop stop-opacity="1" stop-color="rgb(36.801147%, 18.618774%, 91.955566%)" offset="0.714844"/><stop stop-opacity="1" stop-color="rgb(36.805725%, 18.287659%, 91.964722%)" offset="0.71875"/><stop stop-opacity="1" stop-color="rgb(36.808777%, 17.955017%, 91.972351%)" offset="0.722656"/><stop stop-opacity="1" stop-color="rgb(36.811829%, 17.623901%, 91.981506%)" offset="0.726563"/><stop stop-opacity="1" stop-color="rgb(36.81488%, 17.29126%, 91.989136%)" offset="0.730469"/><stop stop-opacity="1" stop-color="rgb(36.819458%, 16.960144%, 91.998291%)" offset="0.734375"/><stop stop-opacity="1" stop-color="rgb(36.82251%, 16.627502%, 92.00592%)" offset="0.738281"/><stop stop-opacity="1" stop-color="rgb(36.825562%, 16.296387%, 92.015076%)" offset="0.742188"/><stop stop-opacity="1" stop-color="rgb(36.828613%, 15.963745%, 92.022705%)" offset="0.746094"/><stop stop-opacity="1" stop-color="rgb(36.831665%, 15.632629%, 92.03186%)" offset="0.75"/><stop stop-opacity="1" stop-color="rgb(36.834717%, 15.299988%, 92.03949%)" offset="0.753906"/><stop stop-opacity="1" stop-color="rgb(36.839294%, 14.968872%, 92.048645%)" offset="0.757813"/><stop stop-opacity="1" stop-color="rgb(36.842346%, 14.63623%, 92.056274%)" offset="0.761719"/><stop stop-opacity="1" stop-color="rgb(36.845398%, 14.305115%, 92.06543%)" offset="0.765625"/><stop stop-opacity="1" stop-color="rgb(36.84845%, 13.972473%, 92.073059%)" offset="0.769531"/><stop stop-opacity="1" stop-color="rgb(36.853027%, 13.641357%, 92.082214%)" offset="0.773437"/><stop stop-opacity="1" stop-color="rgb(36.856079%, 13.308716%, 92.089844%)" offset="0.777344"/><stop stop-opacity="1" stop-color="rgb(36.859131%, 12.9776%, 92.098999%)" offset="0.78125"/><stop stop-opacity="1" stop-color="rgb(36.862183%, 12.644958%, 92.106628%)" offset="0.785156"/><stop stop-opacity="1" stop-color="rgb(36.865234%, 12.313843%, 92.115784%)" offset="0.789062"/><stop stop-opacity="1" stop-color="rgb(36.868286%, 11.981201%, 92.123413%)" offset="0.792969"/><stop stop-opacity="1" stop-color="rgb(36.872864%, 11.650085%, 92.132568%)" offset="0.796875"/><stop stop-opacity="1" stop-color="rgb(36.875916%, 11.317444%, 92.140198%)" offset="0.800781"/><stop stop-opacity="1" stop-color="rgb(36.878967%, 10.986328%, 92.149353%)" offset="0.804688"/><stop stop-opacity="1" stop-color="rgb(36.882019%, 10.653687%, 92.156982%)" offset="0.808594"/><stop stop-opacity="1" stop-color="rgb(36.886597%, 10.322571%, 92.166138%)" offset="0.8125"/><stop stop-opacity="1" stop-color="rgb(36.889648%, 9.989929%, 92.173767%)" offset="0.816406"/><stop stop-opacity="1" stop-color="rgb(36.8927%, 9.658813%, 92.182922%)" offset="0.820312"/><stop stop-opacity="1" stop-color="rgb(36.895752%, 9.329224%, 92.190552%)" offset="0.824219"/><stop stop-opacity="1" stop-color="rgb(36.898804%, 8.999634%, 92.199707%)" offset="0.828125"/><stop stop-opacity="1" stop-color="rgb(36.898804%, 8.999634%, 92.199707%)" offset="0.84375"/><stop stop-opacity="1" stop-color="rgb(36.898804%, 8.999634%, 92.199707%)" offset="0.875"/><stop stop-opacity="1" stop-color="rgb(36.898804%, 8.999634%, 92.199707%)" offset="0.993903"/><stop stop-opacity="1" stop-color="rgb(36.898804%, 8.999634%, 92.199707%)" offset="1"/></linearGradient><clipPath id="0369468577"><path d="M 405 215.441406 L 493 215.441406 L 493 617.441406 L 405 617.441406 Z M 405 215.441406 " clip-rule="nonzero"/></clipPath><clipPath id="99412e40b0"><path d="M 477.464844 198.582031 L 511.484375 198.582031 L 511.484375 232.601562 L 477.464844 232.601562 Z M 477.464844 198.582031 " clip-rule="nonzero"/></clipPath><clipPath id="e1718c2c3d"><path d="M 494.476562 198.582031 C 485.082031 198.582031 477.464844 206.199219 477.464844 215.59375 C 477.464844 224.988281 485.082031 232.601562 494.476562 232.601562 C 503.871094 232.601562 511.484375 224.988281 511.484375 215.59375 C 511.484375 206.199219 503.871094 198.582031 494.476562 198.582031 Z M 494.476562 198.582031 " clip-rule="nonzero"/></clipPath><clipPath id="0ea701c7d9"><path d="M 477.464844 600.433594 L 511.484375 600.433594 L 511.484375 634.453125 L 477.464844 634.453125 Z M 477.464844 600.433594 " clip-rule="nonzero"/></clipPath><clipPath id="040c88e540"><path d="M 494.476562 600.433594 C 485.082031 600.433594 477.464844 608.050781 477.464844 617.445312 C 477.464844 626.839844 485.082031 634.453125 494.476562 634.453125 C 503.871094 634.453125 511.484375 626.839844 511.484375 617.445312 C 511.484375 608.050781 503.871094 600.433594 494.476562 600.433594 Z M 494.476562 600.433594 " clip-rule="nonzero"/></clipPath><clipPath id="f7564ac7e4"><path d="M 341.972656 23.902344 L 435.453125 23.902344 L 435.453125 117.382812 L 341.972656 117.382812 Z M 341.972656 23.902344 " clip-rule="nonzero"/></clipPath><clipPath id="3a062cd66a"><path d="M 388.714844 23.902344 C 362.898438 23.902344 341.972656 44.828125 341.972656 70.640625 C 341.972656 96.457031 362.898438 117.382812 388.714844 117.382812 C 414.527344 117.382812 435.453125 96.457031 435.453125 70.640625 C 435.453125 44.828125 414.527344 23.902344 388.714844 23.902344 Z M 388.714844 23.902344 " clip-rule="nonzero"/></clipPath><clipPath id="7fe12e5509"><path d="M 591.929688 685.929688 L 674.652344 685.929688 L 674.652344 768.652344 L 591.929688 768.652344 Z M 591.929688 685.929688 " clip-rule="nonzero"/></clipPath><clipPath id="67098eb8a8"><path d="M 633.289062 685.929688 C 610.445312 685.929688 591.929688 704.445312 591.929688 727.289062 C 591.929688 750.132812 610.445312 768.652344 633.289062 768.652344 C 656.132812 768.652344 674.652344 750.132812 674.652344 727.289062 C 674.652344 704.445312 656.132812 685.929688 633.289062 685.929688 Z M 633.289062 685.929688 " clip-rule="nonzero"/></clipPath><clipPath id="c5a028665a"><path d="M 1133.660156 126.230469 L 1179.410156 126.230469 L 1179.410156 171.980469 L 1133.660156 171.980469 Z M 1133.660156 126.230469 " clip-rule="nonzero"/></clipPath></defs><g clip-path="url(#3f943e3348)"><g clip-path="url(#19f2330ddb)"><path fill="#004aad" d="M 465.832031 149.140625 L 1002.617188 149.140625 L 1002.617188 685.929688 L 465.832031 685.929688 Z M 465.832031 149.140625 " fill-opacity="1" fill-rule="nonzero"/></g></g><g clip-path="url(#acd8040c75)"><g clip-path="url(#27c0f778a3)"><path fill="url(#e5604d13df)" d="M 1080.09375 762.382812 L 1080.09375 70.886719 L 734.34375 70.886719 L 734.34375 762.382812 Z M 1080.09375 762.382812 " fill-rule="nonzero"/></g></g><g clip-path="url(#0369468577)"><path fill="#38b6ff" d="M 492.714844 220.027344 C 489.507812 223.25 486.378906 226.546875 483.332031 229.925781 C 480.28125 233.300781 477.320312 236.75 474.441406 240.269531 C 471.5625 243.789062 468.773438 247.378906 466.070312 251.035156 C 463.367188 254.695312 460.753906 258.414062 458.234375 262.199219 C 455.710938 265.984375 453.285156 269.832031 450.953125 273.734375 C 448.621094 277.640625 446.386719 281.597656 444.246094 285.613281 C 442.109375 289.625 440.070312 293.6875 438.128906 297.804688 C 436.191406 301.917969 434.351562 306.074219 432.617188 310.277344 C 430.878906 314.480469 429.25 318.726562 427.71875 323.007812 C 426.191406 327.292969 424.769531 331.609375 423.453125 335.964844 C 422.136719 340.316406 420.925781 344.699219 419.824219 349.113281 C 418.722656 353.523438 417.730469 357.960938 416.84375 362.421875 C 415.957031 366.882812 415.183594 371.363281 414.519531 375.859375 C 413.851562 380.359375 413.296875 384.871094 412.851562 389.398438 C 412.410156 393.925781 412.074219 398.457031 411.851562 403 C 411.628906 407.542969 411.519531 412.089844 411.519531 416.636719 C 411.519531 421.183594 411.628906 425.730469 411.851562 430.273438 C 412.074219 434.8125 412.410156 439.347656 412.851562 443.875 C 413.296875 448.402344 413.851562 452.914062 414.519531 457.414062 C 415.183594 461.910156 415.957031 466.390625 416.84375 470.851562 C 417.730469 475.3125 418.722656 479.75 419.824219 484.160156 C 420.925781 488.574219 422.136719 492.957031 423.453125 497.308594 C 424.769531 501.664062 426.191406 505.980469 427.71875 510.265625 C 429.25 514.546875 430.878906 518.792969 432.617188 522.996094 C 434.351562 527.199219 436.191406 531.355469 438.128906 535.46875 C 440.070312 539.582031 442.109375 543.648438 444.246094 547.660156 C 446.386719 551.675781 448.621094 555.632812 450.953125 559.539062 C 453.285156 563.441406 455.710938 567.285156 458.234375 571.074219 C 460.753906 574.859375 463.367188 578.578125 466.070312 582.238281 C 468.773438 585.894531 471.5625 589.484375 474.441406 593.003906 C 477.320312 596.523438 480.28125 599.972656 483.332031 603.347656 C 486.378906 606.726562 489.507812 610.023438 492.714844 613.246094 L 488.34375 617.441406 C 485.058594 614.148438 481.863281 610.78125 478.746094 607.332031 C 475.628906 603.882812 472.597656 600.359375 469.65625 596.761719 C 466.710938 593.164062 463.855469 589.496094 461.09375 585.761719 C 458.328125 582.023438 455.65625 578.21875 453.078125 574.351562 C 450.5 570.484375 448.019531 566.554688 445.636719 562.566406 C 443.25 558.578125 440.964844 554.53125 438.777344 550.429688 C 436.589844 546.328125 434.503906 542.175781 432.519531 537.972656 C 430.535156 533.765625 428.65625 529.519531 426.882812 525.222656 C 425.105469 520.925781 423.4375 516.589844 421.875 512.210938 C 420.3125 507.832031 418.855469 503.421875 417.507812 498.972656 C 416.164062 494.523438 414.925781 490.042969 413.800781 485.535156 C 412.671875 481.023438 411.65625 476.488281 410.75 471.929688 C 409.84375 467.371094 409.050781 462.792969 408.371094 458.195312 C 407.691406 453.597656 407.125 448.984375 406.667969 444.359375 C 406.214844 439.730469 405.875 435.097656 405.644531 430.453125 C 405.417969 425.8125 405.304688 421.167969 405.304688 416.519531 C 405.304688 411.871094 405.417969 407.222656 405.644531 402.582031 C 405.875 397.9375 406.214844 393.304688 406.667969 388.679688 C 407.125 384.054688 407.691406 379.441406 408.371094 374.84375 C 409.050781 370.246094 409.84375 365.664062 410.75 361.105469 C 411.65625 356.546875 412.671875 352.011719 413.800781 347.503906 C 414.925781 342.992188 416.164062 338.515625 417.507812 334.066406 C 418.855469 329.617188 420.3125 325.203125 421.875 320.824219 C 423.4375 316.449219 425.105469 312.109375 426.882812 307.816406 C 428.65625 303.519531 430.535156 299.269531 432.519531 295.066406 C 434.503906 290.863281 436.589844 286.710938 438.777344 282.609375 C 440.964844 278.503906 443.25 274.460938 445.636719 270.46875 C 448.019531 266.480469 450.5 262.550781 453.078125 258.683594 C 455.65625 254.816406 458.328125 251.015625 461.09375 247.277344 C 463.855469 243.539062 466.710938 239.871094 469.65625 236.273438 C 472.597656 232.679688 475.628906 229.15625 478.746094 225.707031 C 481.863281 222.257812 485.058594 218.886719 488.34375 215.59375 Z M 492.714844 220.027344 " fill-opacity="1" fill-rule="nonzero"/></g><g clip-path="url(#99412e40b0)"><g clip-path="url(#e1718c2c3d)"><path fill="#38b6ff" d="M 477.464844 198.582031 L 511.484375 198.582031 L 511.484375 232.601562 L 477.464844 232.601562 Z M 477.464844 198.582031 " fill-opacity="1" fill-rule="nonzero"/></g></g><g clip-path="url(#0ea701c7d9)"><g clip-path="url(#040c88e540)"><path fill="#38b6ff" d="M 477.464844 600.433594 L 511.484375 600.433594 L 511.484375 634.453125 L 477.464844 634.453125 Z M 477.464844 600.433594 " fill-opacity="1" fill-rule="nonzero"/></g></g><g clip-path="url(#f7564ac7e4)"><g clip-path="url(#3a062cd66a)"><path fill="#5271ff" d="M 341.972656 23.902344 L 435.453125 23.902344 L 435.453125 117.382812 L 341.972656 117.382812 Z M 341.972656 23.902344 " fill-opacity="1" fill-rule="nonzero"/></g></g><g clip-path="url(#7fe12e5509)"><g clip-path="url(#67098eb8a8)"><path fill="#6422b8" d="M 591.929688 685.929688 L 674.652344 685.929688 L 674.652344 768.652344 L 591.929688 768.652344 Z M 591.929688 685.929688 " fill-opacity="1" fill-rule="nonzero"/></g></g><g clip-path="url(#c5a028665a)"><path fill="#5e17eb" d="M 1171.761719 131.996094 C 1165.164062 126.144531 1154.988281 126.816406 1149.375 133.617188 C 1146.480469 137.125 1144.746094 141.621094 1144.746094 146.523438 L 1144.765625 146.523438 C 1144.765625 152.222656 1147.941406 157.183594 1152.617188 159.730469 C 1152.992188 159.933594 1153.375 160.121094 1153.769531 160.292969 L 1160.410156 145.875 L 1160.425781 145.875 C 1162.007812 147.503906 1163.226562 149.488281 1163.945312 151.699219 L 1157.066406 166.628906 C 1156.046875 166.492188 1155.054688 166.28125 1154.089844 165.996094 C 1154.066406 165.992188 1154.039062 165.984375 1154.015625 165.976562 C 1153.933594 165.953125 1153.851562 165.925781 1153.765625 165.898438 C 1153.722656 165.886719 1153.683594 165.875 1153.644531 165.863281 C 1153.554688 165.832031 1153.46875 165.804688 1153.378906 165.777344 C 1153.34375 165.765625 1153.308594 165.753906 1153.273438 165.742188 C 1153.171875 165.707031 1153.070312 165.667969 1152.96875 165.632812 C 1152.949219 165.625 1152.929688 165.621094 1152.910156 165.613281 C 1152.664062 165.523438 1152.417969 165.429688 1152.175781 165.332031 C 1152.148438 165.320312 1152.117188 165.308594 1152.089844 165.296875 C 1152 165.261719 1151.910156 165.222656 1151.820312 165.183594 C 1151.785156 165.167969 1151.746094 165.152344 1151.710938 165.136719 C 1151.664062 165.113281 1151.613281 165.09375 1151.566406 165.074219 C 1151.175781 164.898438 1150.792969 164.710938 1150.414062 164.515625 C 1143.929688 161.128906 1139.503906 154.34375 1139.503906 146.523438 C 1139.503906 135.84375 1147.753906 127.09375 1158.222656 126.289062 C 1157.675781 126.25 1157.125 126.230469 1156.566406 126.230469 C 1143.917969 126.230469 1133.660156 136.488281 1133.660156 149.140625 C 1133.660156 155.882812 1136.574219 161.941406 1141.207031 166.136719 C 1147.894531 172.175781 1158.28125 171.480469 1163.925781 164.457031 C 1166.71875 160.980469 1168.390625 156.5625 1168.390625 151.757812 L 1168.371094 151.757812 C 1168.371094 146.054688 1165.195312 141.09375 1160.519531 138.546875 C 1160.144531 138.34375 1159.761719 138.15625 1159.367188 137.984375 L 1152.726562 152.402344 L 1152.710938 152.402344 C 1151.128906 150.777344 1149.910156 148.789062 1149.191406 146.578125 L 1156.070312 131.648438 C 1157.089844 131.785156 1158.082031 132 1159.046875 132.28125 C 1159.070312 132.289062 1159.097656 132.296875 1159.121094 132.300781 C 1159.203125 132.328125 1159.285156 132.351562 1159.371094 132.378906 C 1159.410156 132.390625 1159.453125 132.402344 1159.492188 132.417969 C 1159.582031 132.445312 1159.667969 132.472656 1159.757812 132.503906 C 1159.792969 132.515625 1159.828125 132.527344 1159.863281 132.539062 C 1159.964844 132.574219 1160.066406 132.609375 1160.167969 132.644531 C 1160.1875 132.652344 1160.207031 132.660156 1160.226562 132.664062 C 1160.472656 132.753906 1160.71875 132.847656 1160.960938 132.945312 C 1160.988281 132.957031 1161.019531 132.96875 1161.046875 132.980469 C 1161.136719 133.019531 1161.226562 133.054688 1161.316406 133.09375 C 1161.351562 133.109375 1161.390625 133.125 1161.425781 133.140625 C 1161.472656 133.164062 1161.523438 133.183594 1161.570312 133.203125 L 1161.570312 133.207031 C 1161.960938 133.378906 1162.34375 133.566406 1162.722656 133.761719 C 1169.207031 137.148438 1173.632812 143.933594 1173.632812 151.757812 C 1173.632812 162.433594 1165.382812 171.1875 1154.914062 171.988281 C 1155.460938 172.027344 1156.011719 172.046875 1156.566406 172.046875 C 1169.21875 172.046875 1179.476562 161.792969 1179.476562 149.140625 C 1179.476562 142.316406 1176.496094 136.191406 1171.761719 131.996094 " fill-opacity="1" fill-rule="nonzero"/></g></svg>