<svg xmlns="http://www.w3.org/2000/svg" xmlns:xlink="http://www.w3.org/1999/xlink" width="1366" zoomAndPan="magnify" viewBox="0 0 1024.5 576" height="768" preserveAspectRatio="xMidYMid meet" version="1.0"><path fill="#ffffff" d="M 757.683594 317.535156 C 757.683594 350.105469 740.242188 379.535156 712.179688 400.550781 C 696.859375 412.019531 683.085938 425.394531 670.632812 439.921875 C 643.828125 471.183594 597.875 491.796875 545.691406 491.796875 C 482.402344 491.796875 428.28125 461.480469 406.363281 418.625 C 396.242188 398.839844 380.066406 382.742188 359.976562 373.238281 C 315.222656 352.058594 285.136719 312.601562 285.136719 267.417969 C 285.136719 199.859375 352.402344 145.09375 435.390625 145.09375 C 481.398438 145.09375 522.578125 161.929688 550.140625 188.441406 C 560.984375 198.875 575.871094 203.957031 590.863281 202.640625 C 596.464844 202.148438 602.164062 201.894531 607.9375 201.894531 C 690.636719 201.894531 757.683594 253.667969 757.683594 317.535156 Z M 757.683594 317.535156 " fill-opacity="1" fill-rule="nonzero"/><path fill="#ffffff" d="M 443.527344 262.992188 C 428.007812 269.105469 417.441406 297.480469 417.617188 322.703125 C 417.617188 322.703125 445.070312 482.832031 445.070312 482.832031 C 445.070312 482.832031 471.007812 482.652344 471.007812 482.652344 C 462.382812 393.625 453.957031 298.820312 443.527344 262.992188 Z M 443.527344 262.992188 " fill-opacity="1" fill-rule="nonzero"/><path stroke-linecap="round" transform="matrix(0.533073, 0, 0, 0.533073, 444.223581, 372.914315)" fill="none" stroke-linejoin="round" d="M -1.306083 -206.19725 C -30.419405 -194.729253 -50.241086 -141.50749 -49.911336 -94.191928 C -49.911336 -94.191928 1.588396 206.203631 1.588396 206.203631 C 1.588396 206.203631 50.244944 205.859225 50.244944 205.859225 C 34.065176 38.851487 18.259126 -138.986729 -1.306083 -206.19725 Z M -1.306083 -206.19725 " stroke="#231f1f" stroke-width="2" stroke-opacity="1" stroke-miterlimit="4"/><path stroke-linecap="round" transform="matrix(0.533073, 0, 0, 0.533073, 371.60836, 332.687015)" fill-opacity="1" fill="#ffffff" fill-rule="nonzero" stroke-linejoin="round" d="M 135.917815 -130.73425 C 110.483045 -146.371761 85.583203 -159.986801 61.760547 -169.593538 C 61.760547 -169.593538 -50.105546 -178.701985 -50.105546 -178.701985 C -79.783109 -167.424511 -108.610648 -153.721538 -135.921334 -135.673183 C -135.921334 -135.673183 -78.720579 168.056523 -78.720579 168.056523 C -3.654664 178.051633 56.440569 178.703807 94.413194 165.528434 C 94.413194 165.528434 135.917815 -130.73425 135.917815 -130.73425 Z M 135.917815 -130.73425 " stroke="#231f1f" stroke-width="2" stroke-opacity="1" stroke-miterlimit="4"/><path stroke-linecap="butt" transform="matrix(0.533073, 0, 0, 0.533073, 372.57161, 232.350364)" fill-opacity="1" fill="#ffffff" fill-rule="nonzero" stroke-linejoin="miter" d="M -37.674619 -57.484291 C -37.674619 -57.484291 -34.076672 -5.537564 -34.076672 -5.537564 C -34.076672 -5.537564 17.55496 57.488787 17.55496 57.488787 C 17.55496 57.488787 37.67708 19.897207 37.67708 19.897207 C 37.67708 19.897207 37.67708 -30.217572 37.67708 -30.217572 C 37.67708 -30.217572 -37.674619 -57.484291 -37.674619 -57.484291 Z M -37.674619 -57.484291 " stroke="#231f1f" stroke-width="2" stroke-opacity="1" stroke-miterlimit="10"/><path stroke-linecap="round" transform="matrix(0.533073, 0, 0, 0.533073, 372.57161, 217.81932)" fill-opacity="1" fill="#231f1f" fill-rule="nonzero" stroke-linejoin="round" d="M 36.11626 2.991602 C 36.11626 2.991602 36.11626 20.754173 36.11626 20.754173 C -2.449916 21.501608 -21.678046 5.050712 -36.113799 -21.497883 C -11.682936 -4.189635 10.652178 3.401958 36.11626 2.991602 Z M 36.11626 2.991602 " stroke="#231f1f" stroke-width="2" stroke-opacity="1" stroke-miterlimit="4"/><path stroke-linecap="round" transform="matrix(0.533073, 0, 0, 0.533073, 359.499075, 245.251814)" fill-opacity="1" fill="#ffffff" fill-rule="nonzero" stroke-linejoin="round" d="M 42.077925 33.286762 C 42.077925 33.286762 15.375446 18.477291 15.375446 18.477291 C 15.375446 18.477291 0.441403 39.73522 0.441403 39.73522 C 0.441403 39.73522 -42.081782 -17.209062 -42.081782 -17.209062 C -42.081782 -17.209062 -21.072998 -39.734699 -21.072998 -39.734699 C -21.072998 -39.734699 -10.249847 -39.734699 -10.249847 -39.734699 C -10.249847 -39.734699 -9.553707 -29.739589 -9.553707 -29.739589 C -9.553707 -29.739589 42.077925 33.286762 42.077925 33.286762 Z M 42.077925 33.286762 " stroke="#231f1f" stroke-width="2" stroke-opacity="1" stroke-miterlimit="4"/><path stroke-linecap="round" transform="matrix(0.533073, 0, 0, 0.533073, 393.230355, 250.513764)" fill-opacity="1" fill="#ffffff" fill-rule="nonzero" stroke-linejoin="round" d="M -21.199093 23.415791 C -21.199093 23.415791 -2.637792 11.640028 -2.637792 11.640028 C -2.637792 11.640028 17.90934 32.399666 17.90934 32.399666 C 17.90934 32.399666 21.199519 -15.436169 21.199519 -15.436169 C 21.199519 -15.436169 -1.076972 -32.40001 -1.076972 -32.40001 C -1.076972 -32.40001 -1.076972 -14.175788 -1.076972 -14.175788 C -1.076972 -14.175788 -21.199093 23.415791 -21.199093 23.415791 Z M -21.199093 23.415791 " stroke="#231f1f" stroke-width="2" stroke-opacity="1" stroke-miterlimit="4"/><path stroke-linecap="round" transform="matrix(0.533073, 0, 0, 0.533073, 380.062916, 266.738365)" fill-opacity="1" fill="#004aad" fill-rule="nonzero" stroke-linejoin="round" d="M 17.519974 -15.916124 C 19.09545 -1.84676 17.556613 10.002281 12.808203 19.550396 C 12.808203 19.550396 -9.592861 19.550396 -9.592861 19.550396 C -16.063302 9.621236 -18.422852 -4.169671 -19.089681 -19.550709 C -19.089681 -19.550709 3.501906 -7.02751 3.501906 -7.02751 C 3.501906 -7.02751 17.519974 -15.916124 17.519974 -15.916124 Z M 17.519974 -15.916124 " stroke="#231f1f" stroke-width="2" stroke-opacity="1" stroke-miterlimit="4"/><path stroke-linecap="round" transform="matrix(0.533073, 0, 0, 0.533073, 382.132841, 345.661982)" fill-opacity="1" fill="#004aad" fill-rule="nonzero" stroke-linejoin="round" d="M 8.925198 -128.503608 C 8.925198 -128.503608 25.815762 -22.954073 25.815762 -22.954073 C 21.155285 24.478733 12.112788 75.949154 1.897845 128.504087 C -9.731363 80.60963 -20.342008 30.597441 -25.81587 -30.164622 C -25.81587 -30.164622 -13.475866 -128.503608 -13.475866 -128.503608 C -13.475866 -128.503608 8.925198 -128.503608 8.925198 -128.503608 Z M 8.925198 -128.503608 " stroke="#231f1f" stroke-width="2" stroke-opacity="1" stroke-miterlimit="4"/><path stroke-linecap="round" transform="matrix(0.533073, 0, 0, 0.533073, 375.319077, 433.301385)" fill-opacity="1" fill="#231f1f" fill-rule="nonzero" stroke-linejoin="round" d="M 87.452203 -23.215581 C 87.452203 -23.215581 87.452203 7.03355 87.452203 7.03355 C 34.289062 23.213317 -24.641052 21.220158 -87.447569 7.03355 C -87.447569 7.03355 -85.68157 -20.687492 -85.68157 -20.687492 C -18.463722 -10.43591 40.261214 -10.091503 87.452203 -23.215581 Z M 87.452203 -23.215581 " stroke="#231f1f" stroke-width="2" stroke-opacity="1" stroke-miterlimit="4"/><path stroke-linecap="round" transform="matrix(0.533073, 0, 0, 0.533073, 374.644203, 466.69894)" fill-opacity="1" fill="#231f1f" fill-rule="nonzero" stroke-linejoin="round" d="M 88.71821 -55.617428 C 88.71821 -55.617428 97.577512 55.618475 97.577512 55.618475 C 97.577512 55.618475 -97.57628 55.618475 -97.57628 55.618475 C -97.57628 55.618475 -86.181561 -55.617428 -86.181561 -55.617428 C -86.181561 -55.617428 88.71821 -55.617428 88.71821 -55.617428 Z M 88.71821 -55.617428 " stroke="#231f1f" stroke-width="2" stroke-opacity="1" stroke-miterlimit="4"/><path stroke-linecap="round" transform="matrix(0.533073, 0, 0, 0.533073, 287.983042, 343.817061)" fill-opacity="1" fill="#ffffff" fill-rule="nonzero" stroke-linejoin="round" d="M 58.199835 -23.039811 C 58.199835 -23.039811 13.68349 115.667989 13.68349 115.667989 C -0.173367 156.029475 -65.742462 133.518493 -51.885605 93.157008 C -30.371203 -0.0598513 -5.559295 -82.050531 21.597507 -156.024605 C 52.916496 -128.472102 65.747462 -84.688536 58.199835 -23.039811 Z M 58.199835 -23.039811 " stroke="#231f1f" stroke-width="2" stroke-opacity="1" stroke-miterlimit="4"/><path fill="#231f1f" d="M 352.878906 204.039062 C 352.878906 204.039062 354.875 208.304688 354.875 208.304688 C 354.875 208.304688 368.601562 217.769531 368.601562 217.769531 C 368.601562 217.769531 392.726562 222.296875 392.726562 222.296875 C 392.726562 222.296875 392.992188 211.105469 392.992188 211.105469 C 392.992188 211.105469 352.878906 204.039062 352.878906 204.039062 Z M 352.878906 204.039062 " fill-opacity="1" fill-rule="nonzero"/><path stroke-linecap="round" transform="matrix(0.533073, 0, 0, 0.533073, 419.196333, 150.156891)" fill-opacity="1" fill="#231f1f" fill-rule="nonzero" stroke-linejoin="round" d="M 6.886212 -30.572756 C 13.305359 -10.457964 9.187139 9.942613 -3.372699 30.570351 C -3.372699 30.570351 -13.301859 -27.451116 -13.301859 -27.451116 C -13.301859 -27.451116 6.886212 -30.572756 6.886212 -30.572756 Z M 6.886212 -30.572756 " stroke="#231f1f" stroke-width="2" stroke-opacity="1" stroke-miterlimit="4"/><path stroke-linecap="butt" transform="matrix(0.533073, 0, 0, 0.533073, 384.097763, 168.74035)" fill-opacity="1" fill="#ffffff" fill-rule="nonzero" stroke-linejoin="miter" d="M -62.535589 -13.399086 C -62.535589 -13.399086 -61.964021 24.375688 -61.964021 24.375688 C -61.964021 24.375688 -58.739792 69.749385 -58.739792 69.749385 C -28.747133 90.824118 2.982212 101.47873 37.85518 93.271601 C 45.322202 91.512931 51.316336 85.951136 53.668558 78.652654 C 64.02273 46.468985 65.195177 1.872035 57.442372 -54.779135 C 30.673943 -101.479162 -28.556611 -98.635978 -65.195577 -60.099113 C -65.195577 -60.099113 -62.535589 -13.399086 -62.535589 -13.399086 Z M -62.535589 -13.399086 " stroke="#231f1f" stroke-width="2" stroke-opacity="1" stroke-miterlimit="10"/><path stroke-linecap="butt" transform="matrix(0.533073, 0, 0, 0.533073, 343.554328, 168.818184)" fill-opacity="1" fill="#ffffff" fill-rule="nonzero" stroke-linejoin="miter" d="M 13.520452 -13.545098 C 6.185331 -25.694579 -14.193262 -17.72194 -7.993949 2.656653 C -1.384279 19.686445 6.28792 24.061138 14.194609 25.695236 C 14.194609 25.695236 13.520452 -13.545098 13.520452 -13.545098 Z M 13.520452 -13.545098 " stroke="#231f1f" stroke-width="2" stroke-opacity="1" stroke-miterlimit="10"/><path stroke-linecap="round" transform="matrix(0.533073, 0, 0, 0.533073, 350.401124, 146.893948)" fill-opacity="1" fill="#231f1f" fill-rule="nonzero" stroke-linejoin="round" d="M 17.933398 -35.318871 C 32.742868 -12.492794 20.798565 32.52184 1.350602 44.297604 C 1.350602 44.297604 0.676445 27.582907 0.676445 27.582907 C -4.247832 22.453452 -9.553155 19.375779 -16.353347 24.278073 C -30.840394 -3.604181 -32.745621 -26.847942 -18.940058 -44.295417 C -18.940058 -44.295417 17.933398 -35.318871 17.933398 -35.318871 Z M 17.933398 -35.318871 " stroke="#231f1f" stroke-width="2" stroke-opacity="1" stroke-miterlimit="4"/><path stroke-linecap="round" transform="matrix(0.533073, 0, 0, 0.533073, 386.686342, 119.49985)" fill-opacity="1" fill="#231f1f" fill-rule="nonzero" stroke-linejoin="round" d="M 64.735899 -37.202924 C 87.005063 -3.685598 75.485772 21.954351 53.575669 45.176128 C 35.04368 25.361775 2.259133 22.906964 -43.495609 36.258204 C -43.495609 36.258204 -87.008046 7.086258 -87.008046 7.086258 C -83.146299 -32.27132 -39.677828 -45.175564 -6.219124 -25.625011 C 29.92888 -10.595707 54.059304 -13.724675 64.735899 -37.202924 Z M 64.735899 -37.202924 " stroke="#231f1f" stroke-width="2" stroke-opacity="1" stroke-miterlimit="4"/><path stroke-linecap="round" transform="matrix(0.533073, 0, 0, 0.533073, 402.270182, 174.836573)" fill="none" stroke-linejoin="round" d="M -2.844405 -28.630881 C -1.825841 -7.512181 2.739374 10.389618 10.82193 25.089172 C 3.025158 27.888389 -4.148752 28.628496 -10.824372 27.749161 " stroke="#231f1f" stroke-width="2" stroke-opacity="1" stroke-miterlimit="4"/><path stroke-linecap="round" transform="matrix(0.533073, 0, 0, 0.533073, 379.468011, 158.858783)" fill="none" stroke-linejoin="round" d="M 10.443492 -3.670114 C 1.203145 -5.062395 -5.758259 -2.153261 -10.440719 5.064616 " stroke="#231f1f" stroke-width="2" stroke-opacity="1" stroke-miterlimit="4"/><path stroke-linecap="round" transform="matrix(0.533073, 0, 0, 0.533073, 409.742283, 158.22496)" fill="none" stroke-linejoin="round" d="M 8.258244 2.809552 C 4.059418 -0.817706 -1.033398 -2.810866 -8.258602 -0.861673 " stroke="#231f1f" stroke-width="2" stroke-opacity="1" stroke-miterlimit="4"/><path stroke-linecap="round" transform="matrix(0.533073, 0, 0, 0.533073, 382.773604, 169.52451)" fill-opacity="1" fill="#231f1f" fill-rule="nonzero" stroke-linejoin="round" d="M -4.235778 -0.00201204 C -4.235778 4.651137 -2.337879 8.417622 -0.00031325 8.417622 C 2.344581 8.417622 4.242479 4.651137 4.242479 -0.00201204 C 4.242479 -4.647833 2.344581 -8.414319 -0.00031325 -8.414319 C -2.337879 -8.414319 -4.235778 -4.647833 -4.235778 -0.00201204 Z M -4.235778 -0.00201204 " stroke="#231f1f" stroke-width="2" stroke-opacity="1" stroke-miterlimit="4"/><path stroke-linecap="round" transform="matrix(0.533073, 0, 0, 0.533073, 409.742283, 166.862884)" fill-opacity="1" fill="#231f1f" fill-rule="nonzero" stroke-linejoin="round" d="M -3.356309 0.000744523 C -3.356309 3.774558 -1.854111 6.837576 -0.000179314 6.837576 C 1.853752 6.837576 3.35595 3.774558 3.35595 0.000744523 C 3.35595 -3.780397 1.853752 -6.836087 -0.000179314 -6.836087 C -1.854111 -6.836087 -3.356309 -3.780397 -3.356309 0.000744523 Z M -3.356309 0.000744523 " stroke="#231f1f" stroke-width="2" stroke-opacity="1" stroke-miterlimit="4"/><path stroke-linecap="round" transform="matrix(0.533073, 0, 0, 0.533073, 385.371261, 199.849448)" fill="none" stroke-linejoin="round" d="M 15.373397 7.59556 C 3.604961 5.052816 -6.991028 0.568206 -15.374023 -7.594955 " stroke="#231f1f" stroke-width="2" stroke-opacity="1" stroke-miterlimit="4"/><path stroke-linecap="round" transform="matrix(0.533073, 0.000253503, -0.000253503, 0.533073, 628.144836, 222.049571)" fill-opacity="1" fill="#231f1f" fill-rule="nonzero" stroke-linejoin="round" d="M 24.51352 -102.356695 C -28.997416 -140.281896 -96.742344 -77.523758 -87.170847 -12.948456 C -101.10628 22.143652 -94.62552 59.248522 -77.841395 97.374384 C -31.94281 122.472237 74.054881 140.279666 101.105824 56.348897 C 95.302297 10.303795 89.331002 -34.121784 81.711298 -62.410775 C 75.51319 -90.693115 53.451853 -100.523852 24.51352 -102.356695 Z M 24.51352 -102.356695 " stroke="#231f1f" stroke-width="2" stroke-opacity="1" stroke-miterlimit="4"/><path stroke-linecap="round" transform="matrix(0.533073, 0.000253503, -0.000253503, 0.533073, 628.144836, 222.049571)" fill-opacity="1" fill="#231f1f" fill-rule="nonzero" stroke-linejoin="round" d="M 24.51352 -102.356695 C -28.997416 -140.281896 -96.742344 -77.523758 -87.170847 -12.948456 C -101.10628 22.143652 -94.62552 59.248522 -77.841395 97.374384 C -31.94281 122.472237 74.054881 140.279666 101.105824 56.348897 C 95.302297 10.303795 89.331002 -34.121784 81.711298 -62.410775 C 75.51319 -90.693115 53.451853 -100.523852 24.51352 -102.356695 Z M 24.51352 -102.356695 " stroke="#231f1f" stroke-width="2" stroke-opacity="1" stroke-miterlimit="4"/><path stroke-linecap="butt" transform="matrix(0.533073, 0, 0, 0.533073, 570.719768, 385.74966)" fill-opacity="1" fill="#ffffff" fill-rule="nonzero" stroke-linejoin="miter" d="M 4.702533 51.170618 C -6.362435 85.215546 -44.422994 72.846231 -33.358026 38.801303 C -33.358026 38.801303 3.984409 -85.214271 3.984409 -85.214271 C 3.984409 -85.214271 44.4265 -55.822492 44.4265 -55.822492 C 44.4265 -55.822492 4.702533 51.170618 4.702533 51.170618 Z M 4.702533 51.170618 " stroke="#231f1f" stroke-width="2" stroke-opacity="1" stroke-miterlimit="10"/><path stroke-linecap="round" transform="matrix(0.533073, 0, 0, 0.533073, 583.668576, 331.011555)" fill-opacity="1" fill="#004aad" fill-rule="nonzero" stroke-linejoin="round" d="M 12.734565 -64.000639 C -10.010905 -40.544373 -27.377776 -7.781809 -40.450559 32.381826 C -40.450559 32.381826 20.333487 64.001255 20.333487 64.001255 C 20.333487 64.001255 33.574809 14.509339 33.574809 14.509339 C 40.455607 -25.251268 38.865476 -56.694829 12.734565 -64.000639 Z M 12.734565 -64.000639 " stroke="#231f1f" stroke-width="2" stroke-opacity="1" stroke-miterlimit="4"/><path fill="#231f1f" d="M 599.25 418.183594 C 599.25 418.183594 669.703125 416.800781 669.703125 416.800781 C 687.113281 475.375 675.652344 490.835938 675.535156 503.386719 C 648.683594 510.824219 621.640625 510.613281 594.667969 502.058594 C 577.167969 456.449219 593.828125 434.859375 599.25 418.183594 Z M 599.25 418.183594 " fill-opacity="1" fill-rule="nonzero"/><path stroke-linecap="round" transform="matrix(0.533073, 0, 0, 0.533073, 635.093069, 518.117603)" fill="none" stroke-linejoin="round" d="M -67.238554 -187.467717 C -67.238554 -187.467717 64.925527 -190.069083 64.925527 -190.069083 C 102.084767 -67.181989 71.088201 -49.184929 75.616777 -26.886453 C 25.245526 -12.934335 -25.235642 -14.077471 -75.834055 -30.125338 C -90.409036 -66.683699 -103.914159 -98.178555 -67.238554 -187.467717 Z M -67.238554 -187.467717 " stroke="#231f1f" stroke-width="2" stroke-opacity="1" stroke-miterlimit="4"/><path stroke-linecap="round" transform="matrix(0.533073, 0, 0, 0.533073, 638.340628, 354.326581)" fill-opacity="1" fill="#004aad" fill-rule="nonzero" stroke-linejoin="round" d="M -89.920823 -107.407899 C -71.528061 -118.575456 -52.37321 -125.917905 -32.0166 -127.207597 C -32.0166 -127.207597 -15.104053 -110.6248 -15.104053 -110.6248 C -15.104053 -110.6248 28.708824 -138.338515 28.708824 -138.338515 C 28.708824 -138.338515 101.693645 -107.407899 101.693645 -107.407899 C 76.691214 -32.034217 62.006316 42.855831 58.833382 117.188967 C 14.771361 138.344306 -29.283333 137.259793 -73.330699 119.790333 C -69.381018 77.36241 -67.930115 39.800141 -76.188538 21.224185 C -98.692191 4.934501 -101.696587 -26.120688 -84.937923 -72.13923 C -84.183161 -81.592083 -86.506071 -93.976054 -89.920823 -107.407899 Z M -89.920823 -107.407899 " stroke="#231f1f" stroke-width="2" stroke-opacity="1" stroke-miterlimit="4"/><path stroke-linecap="round" transform="matrix(0.533073, 0, 0, 0.533073, 637.460497, 269.439478)" fill-opacity="1" fill="#ffffff" fill-rule="nonzero" stroke-linejoin="round" d="M -30.358222 -19.1952 C -30.358222 -19.1952 -30.358222 32.033403 -30.358222 32.033403 C -30.358222 32.033403 -13.453003 48.616199 -13.453003 48.616199 C -13.453003 48.616199 30.359874 20.902485 30.359874 20.902485 C 30.359874 20.902485 29.942189 -48.616291 29.942189 -48.616291 C 29.942189 -48.616291 -30.358222 -19.1952 -30.358222 -19.1952 Z M -30.358222 -19.1952 " stroke="#231f1f" stroke-width="2" stroke-opacity="1" stroke-miterlimit="4"/><path stroke-linecap="round" transform="matrix(0.533073, 0, 0, 0.533073, 637.050561, 258.462961)" fill-opacity="1" fill="#231f1f" fill-rule="nonzero" stroke-linejoin="round" d="M -29.589217 5.609295 C -29.589217 5.609295 -29.589217 22.932198 -29.589217 22.932198 C -4.564803 23.342554 18.30524 4.957121 29.590042 -23.342817 C 12.486972 -7.881173 -10.390399 4.729959 -29.589217 5.609295 Z M -29.589217 5.609295 " stroke="#231f1f" stroke-width="2" stroke-opacity="1" stroke-miterlimit="4"/><path stroke-linecap="round" transform="matrix(0.533073, 0, 0, 0.533073, 618.545945, 247.224187)" fill="none" stroke-linejoin="round" d="M -13.811146 -0.786945 C -2.694884 6.350326 6.508825 4.496394 13.814635 -6.34874 " stroke="#231f1f" stroke-width="2" stroke-opacity="1" stroke-miterlimit="4"/><path stroke-linecap="round" transform="matrix(0.533073, 0, 0, 0.533073, 637.460497, 269.439478)" fill-opacity="1" fill="#ffffff" fill-rule="nonzero" stroke-linejoin="round" d="M -30.358222 -19.1952 C -30.358222 -19.1952 -30.358222 32.033403 -30.358222 32.033403 C -30.358222 32.033403 -13.453003 48.616199 -13.453003 48.616199 C -13.453003 48.616199 30.359874 20.902485 30.359874 20.902485 C 30.359874 20.902485 29.942189 -48.616291 29.942189 -48.616291 C 29.942189 -48.616291 -30.358222 -19.1952 -30.358222 -19.1952 Z M -30.358222 -19.1952 " stroke="#231f1f" stroke-width="2" stroke-opacity="1" stroke-miterlimit="4"/><path stroke-linecap="round" transform="matrix(0.533073, 0, 0, 0.533073, 637.050561, 258.462961)" fill-opacity="1" fill="#231f1f" fill-rule="nonzero" stroke-linejoin="round" d="M -29.589217 5.609295 C -29.589217 5.609295 -29.589217 22.932198 -29.589217 22.932198 C -4.564803 23.342554 18.30524 4.957121 29.590042 -23.342817 C 12.486972 -7.881173 -10.390399 4.729959 -29.589217 5.609295 Z M -29.589217 5.609295 " stroke="#231f1f" stroke-width="2" stroke-opacity="1" stroke-miterlimit="4"/><path stroke-linecap="round" transform="matrix(0.533073, 0, 0, 0.533073, 620.441068, 291.87708)" fill-opacity="1" fill="#004aad" fill-rule="nonzero" stroke-linejoin="round" d="M 1.561454 -17.356116 C -14.076057 -10.907658 -18.472733 -3.565209 -15.109276 4.729853 C -13.050166 9.800686 -8.697457 13.559844 -3.575329 14.974108 C 5.056811 17.355641 12.113476 13.354666 18.474001 6.525163 C 18.474001 6.525163 1.561454 -10.057634 1.561454 -10.057634 C 1.561454 -10.057634 1.561454 -17.356116 1.561454 -17.356116 Z M 1.561454 -17.356116 " stroke="#231f1f" stroke-width="2" stroke-opacity="1" stroke-miterlimit="4"/><path stroke-linecap="round" transform="matrix(0.533073, 0, 0, 0.533073, 646.562183, 290.838075)" fill-opacity="1" fill="#004aad" fill-rule="nonzero" stroke-linejoin="round" d="M -30.526992 8.474248 C -30.526992 8.474248 13.285884 -19.239467 13.285884 -19.239467 C 13.285884 -19.239467 13.285884 -24.87454 13.285884 -24.87454 C 30.528182 -10.56336 29.949286 3.095647 12.516466 16.146447 C -7.393149 24.873849 -20.817666 20.440534 -30.526992 8.474248 Z M -30.526992 8.474248 " stroke="#231f1f" stroke-width="2" stroke-opacity="1" stroke-miterlimit="4"/><path stroke-linecap="round" transform="matrix(0.533073, 0, 0, 0.533073, 625.886914, 367.691267)" fill="none" stroke-linejoin="round" d="M -42.79468 -3.341213 C -30.813738 0.696401 -17.909494 -2.5205 -5.716045 -5.700762 C -3.569002 -6.265002 -1.363336 -6.821915 0.827674 -6.543458 C 3.912675 -6.147758 6.58732 -4.14727 9.298603 -2.505844 C 19.440269 3.642174 31.281983 5.290928 42.793946 6.822437 " stroke="#231f1f" stroke-width="2" stroke-opacity="1" stroke-miterlimit="4"/><path stroke-linecap="butt" transform="matrix(0.533073, 0, 0, 0.533073, 694.210391, 388.17836)" fill-opacity="1" fill="#ffffff" fill-rule="nonzero" stroke-linejoin="miter" d="M -12.712695 49.12069 C -8.308692 84.645832 31.407948 79.721555 27.003944 44.196412 C 27.003944 44.196412 13.872539 -84.648178 13.872539 -84.648178 C 13.872539 -84.648178 -31.413224 -63.463527 -31.413224 -63.463527 C -31.413224 -63.463527 -12.712695 49.12069 -12.712695 49.12069 Z M -12.712695 49.12069 " stroke="#231f1f" stroke-width="2" stroke-opacity="1" stroke-miterlimit="10"/><path stroke-linecap="round" transform="matrix(0.533073, 0, 0, 0.533073, 692.171386, 330.18476)" fill-opacity="1" fill="#004aad" fill-rule="nonzero" stroke-linejoin="round" d="M 0.711714 -62.119892 C 18.598857 -34.772567 29.429336 0.686625 34.646725 42.608931 C 34.646725 42.608931 -31.032287 62.115517 -31.032287 62.115517 C -31.032287 62.115517 -34.644889 11.018814 -34.644889 11.018814 C -33.853487 -29.335344 -26.335172 -59.906898 0.711714 -62.119892 Z M 0.711714 -62.119892 " stroke="#231f1f" stroke-width="2" stroke-opacity="1" stroke-miterlimit="4"/><path fill="#231f1f" d="M 653.53125 240.824219 C 653.53125 240.824219 621.011719 251.75 621.011719 251.75 C 621.011719 251.75 621.679688 261.613281 621.679688 261.613281 C 621.679688 261.613281 620.347656 266.542969 621.679688 265.746094 C 623.011719 264.945312 646.335938 254.949219 651.664062 248.6875 C 656.996094 242.421875 653.53125 240.824219 653.53125 240.824219 Z M 653.53125 240.824219 " fill-opacity="1" fill-rule="nonzero"/><path stroke-linecap="round" transform="matrix(0.533073, 0.000253503, -0.000253503, 0.533073, 618.494538, 222.201693)" fill-opacity="1" fill="#ffffff" fill-rule="nonzero" stroke-linejoin="round" d="M -50.005614 -38.517733 C -67.867581 76.068158 7.88466 101.628121 65.36565 43.711208 C 65.36565 43.711208 67.868641 -9.064759 67.868641 -9.064759 C 67.868641 -9.064759 67.866584 -44.208861 67.866584 -44.208861 C 44.771382 -101.625805 -37.146772 -87.766628 -50.005614 -38.517733 Z M -50.005614 -38.517733 " stroke="#231f1f" stroke-width="2" stroke-opacity="1" stroke-miterlimit="4"/><path stroke-linecap="round" transform="matrix(0.533073, 0.000253503, -0.000253503, 0.533073, 660.528862, 224.644519)" fill-opacity="1" fill="#ffffff" fill-rule="nonzero" stroke-linejoin="round" d="M -10.986357 -13.609795 C 2.705264 -22.079908 10.700572 -20.640135 12.179543 -7.846509 C 12.643111 -3.816442 12.220043 0.272668 11.210675 4.200846 C 6.822143 21.327989 -2.674321 22.07994 -12.640478 21.329917 C -12.640478 21.329917 -10.986357 -13.609795 -10.986357 -13.609795 Z M -10.986357 -13.609795 " stroke="#231f1f" stroke-width="2" stroke-opacity="1" stroke-miterlimit="4"/><path stroke-linecap="round" transform="matrix(0.533073, 0.000253503, -0.000253503, 0.533073, 610.782662, 223.082411)" fill="none" stroke-linejoin="round" d="M 1.788916 -23.281966 C 0.530809 -3.093294 -2.584322 10.596508 -7.145435 19.223491 C -4.359146 22.856752 1.070955 23.28651 7.145528 22.931887 " stroke="#231f1f" stroke-width="2" stroke-opacity="1" stroke-miterlimit="4"/><path stroke-linecap="round" transform="matrix(0.533073, 0.000253503, -0.000253503, 0.533073, 629.869282, 208.684106)" fill="none" stroke-linejoin="round" d="M -11.143577 -2.941434 C -1.918265 -3.744551 5.1544 -0.919386 11.143427 3.745571 " stroke="#231f1f" stroke-width="2" stroke-opacity="1" stroke-miterlimit="4"/><path stroke-linecap="round" transform="matrix(0.533073, 0.000253503, -0.000253503, 0.533073, 602.554151, 208.456289)" fill="none" stroke-linejoin="round" d="M -8.307357 2.848528 C -2.76225 -1.426214 2.769562 -2.843109 8.302721 -1.424148 " stroke="#231f1f" stroke-width="2" stroke-opacity="1" stroke-miterlimit="4"/><path stroke-linecap="round" transform="matrix(0.533073, 0.000253503, -0.000253503, 0.533073, 626.619277, 220.803581)" fill-opacity="1" fill="#231f1f" fill-rule="nonzero" stroke-linejoin="round" d="M 3.572045 0.000377505 C 3.57393 3.964714 1.97067 7.17505 -0.000506737 7.175987 C -1.971683 7.176925 -3.570672 3.960783 -3.572557 -0.00355268 C -3.574439 -3.960561 -1.971182 -7.178225 -0.00000552522 -7.179163 C 1.971171 -7.1801 3.570159 -3.963959 3.572045 0.000377505 Z M 3.572045 0.000377505 " stroke="#231f1f" stroke-width="2" stroke-opacity="1" stroke-miterlimit="4"/><path stroke-linecap="round" transform="matrix(0.533073, 0.000253503, -0.000253503, 0.533073, 629.473092, 217.897548)" fill-opacity="1" fill="#231f1f" fill-rule="nonzero" stroke-linejoin="round" d="M -5.350928 -1.725146 C -1.254601 -1.536571 2.27705 -2.263703 5.346688 -3.752705 C 4.571479 -0.520779 1.656098 1.752224 -1.882278 3.747067 C -1.882278 3.747067 -5.350928 -1.725146 -5.350928 -1.725146 Z M -5.350928 -1.725146 " stroke="#231f1f" stroke-width="2" stroke-opacity="1" stroke-miterlimit="4"/><path stroke-linecap="round" transform="matrix(0.533073, 0.000253503, -0.000253503, 0.533073, 602.619855, 220.582147)" fill-opacity="1" fill="#231f1f" fill-rule="nonzero" stroke-linejoin="round" d="M -3.573638 0.0014819 C -3.571753 3.965818 -1.972768 7.174632 -0.00159164 7.173694 C 1.969588 7.180085 3.572845 3.96242 3.57096 -0.00191571 C 3.569075 -3.966252 1.970089 -7.175065 -0.00108694 -7.174128 C -1.972267 -7.180518 -3.575524 -3.962854 -3.573638 0.0014819 Z M -3.573638 0.0014819 " stroke="#231f1f" stroke-width="2" stroke-opacity="1" stroke-miterlimit="4"/><path stroke-linecap="round" transform="matrix(0.533073, 0.000253503, -0.000253503, 0.533073, 599.769254, 217.673406)" fill-opacity="1" fill="#231f1f" fill-rule="nonzero" stroke-linejoin="round" d="M 5.348992 -1.72012 C 1.260171 -1.534981 -2.279501 -2.266077 -5.350554 -3.752159 C -4.572271 -0.520971 -1.662054 1.756589 1.878218 3.748065 C 1.878218 3.748065 5.348992 -1.72012 5.348992 -1.72012 Z M 5.348992 -1.72012 " stroke="#231f1f" stroke-width="2" stroke-opacity="1" stroke-miterlimit="4"/><path stroke-linecap="round" transform="matrix(0.533073, 0.000253503, -0.000253503, 0.533073, 623.460091, 190.812975)" fill-opacity="1" fill="#231f1f" fill-rule="nonzero" stroke-linejoin="round" d="M 16.650758 -14.52517 C 16.519992 18.67713 32.226415 40.308638 58.576424 54.160295 C 58.576424 54.160295 66.08406 -14.526695 66.08406 -14.526695 C -3.343658 -54.159031 -35.44223 -29.295215 -66.081369 -1.904003 C -66.081369 -1.904003 -59.292567 20.369264 -59.292567 20.369264 C -31.506977 17.410277 -5.53438 8.084299 16.650758 -14.52517 Z M 16.650758 -14.52517 " stroke="#231f1f" stroke-width="2" stroke-opacity="1" stroke-miterlimit="4"/><path stroke-linecap="round" transform="matrix(0.533073, 0.000253503, -0.000253503, 0.533073, 618.494538, 222.201693)" fill-opacity="1" fill="#ffffff" fill-rule="nonzero" stroke-linejoin="round" d="M -50.005614 -38.517733 C -67.867581 76.068158 7.88466 101.628121 65.36565 43.711208 C 65.36565 43.711208 67.868641 -9.064759 67.868641 -9.064759 C 67.868641 -9.064759 67.866584 -44.208861 67.866584 -44.208861 C 44.771382 -101.625805 -37.146772 -87.766628 -50.005614 -38.517733 Z M -50.005614 -38.517733 " stroke="#231f1f" stroke-width="2" stroke-opacity="1" stroke-miterlimit="4"/><path stroke-linecap="round" transform="matrix(0.533073, 0.000253503, -0.000253503, 0.533073, 660.528862, 224.644519)" fill-opacity="1" fill="#ffffff" fill-rule="nonzero" stroke-linejoin="round" d="M -10.986357 -13.609795 C 2.705264 -22.079908 10.700572 -20.640135 12.179543 -7.846509 C 12.643111 -3.816442 12.220043 0.272668 11.210675 4.200846 C 6.822143 21.327989 -2.674321 22.07994 -12.640478 21.329917 C -12.640478 21.329917 -10.986357 -13.609795 -10.986357 -13.609795 Z M -10.986357 -13.609795 " stroke="#231f1f" stroke-width="2" stroke-opacity="1" stroke-miterlimit="4"/><path stroke-linecap="round" transform="matrix(0.533073, 0.000253503, -0.000253503, 0.533073, 610.782662, 223.082411)" fill="none" stroke-linejoin="round" d="M 1.788916 -23.281966 C 0.530809 -3.093294 -2.584322 10.596508 -7.145435 19.223491 C -4.359146 22.856752 1.070955 23.28651 7.145528 22.931887 " stroke="#231f1f" stroke-width="2" stroke-opacity="1" stroke-miterlimit="4"/><path stroke-linecap="round" transform="matrix(0.533073, 0.000253503, -0.000253503, 0.533073, 623.460091, 190.812975)" fill-opacity="1" fill="#231f1f" fill-rule="nonzero" stroke-linejoin="round" d="M 16.650758 -14.52517 C 16.519992 18.67713 32.226415 40.308638 58.576424 54.160295 C 58.576424 54.160295 66.08406 -14.526695 66.08406 -14.526695 C -3.343658 -54.159031 -35.44223 -29.295215 -66.081369 -1.904003 C -66.081369 -1.904003 -59.292567 20.369264 -59.292567 20.369264 C -31.506977 17.410277 -5.53438 8.084299 16.650758 -14.52517 Z M 16.650758 -14.52517 " stroke="#231f1f" stroke-width="2" stroke-opacity="1" stroke-miterlimit="4"/><path stroke-linecap="round" transform="matrix(0.533073, 0.000253503, -0.000253503, 0.533073, 631.116482, 206.866918)" fill="none" stroke-linejoin="round" d="M -11.14565 -2.939968 C -1.920338 -3.743085 5.159655 -0.917923 11.14135 3.73971 " stroke="#231f1f" stroke-width="2" stroke-opacity="1" stroke-miterlimit="4"/><path stroke-linecap="round" transform="matrix(0.533073, 0.000253503, -0.000253503, 0.533073, 600.722932, 205.513388)" fill="none" stroke-linejoin="round" d="M -8.301557 2.844 C -2.763773 -1.42341 2.775362 -2.847636 8.301197 -1.421344 " stroke="#231f1f" stroke-width="2" stroke-opacity="1" stroke-miterlimit="4"/><path stroke-linecap="round" transform="matrix(0.533073, 0.000253503, -0.000253503, 0.533073, 626.621028, 218.226159)" fill-opacity="1" fill="#231f1f" fill-rule="nonzero" stroke-linejoin="round" d="M 3.568759 -0.000939701 C 3.570644 3.963396 1.974712 7.173729 0.00353543 7.174667 C -1.974969 7.175608 -3.573954 3.966794 -3.568511 0.00245442 C -3.570397 -3.961882 -1.974467 -7.179542 -0.00329115 -7.18048 C 1.975216 -7.174093 3.574202 -3.965279 3.568759 -0.000939701 Z M 3.568759 -0.000939701 " stroke="#231f1f" stroke-width="2" stroke-opacity="1" stroke-miterlimit="4"/><path stroke-linecap="round" transform="matrix(0.533073, 0.000253503, -0.000253503, 0.533073, 629.474315, 215.32014)" fill-opacity="1" fill="#231f1f" fill-rule="nonzero" stroke-linejoin="round" d="M -5.353223 -1.726491 C -1.256896 -1.537916 2.274755 -2.265047 5.351724 -3.746725 C 4.576511 -0.522127 1.66113 1.750876 -1.884571 3.75305 C -1.884571 3.75305 -5.353223 -1.726491 -5.353223 -1.726491 Z M -5.353223 -1.726491 " stroke="#231f1f" stroke-width="2" stroke-opacity="1" stroke-miterlimit="4"/><path stroke-linecap="round" transform="matrix(0.533073, 0.000253503, -0.000253503, 0.533073, 602.621965, 217.303214)" fill-opacity="1" fill="#231f1f" fill-rule="nonzero" stroke-linejoin="round" d="M -3.570273 -0.00286582 C -3.568387 3.96147 -1.969399 7.177612 0.00177757 7.176674 C 1.972954 7.175737 3.568886 3.965404 3.574329 0.00106436 C 3.572444 -3.963272 1.973455 -7.179413 0.00227879 -7.178476 C -1.976225 -7.177535 -3.572158 -3.967202 -3.570273 -0.00286582 Z M -3.570273 -0.00286582 " stroke="#231f1f" stroke-width="2" stroke-opacity="1" stroke-miterlimit="4"/><path stroke-linecap="round" transform="matrix(0.533073, 0.000253503, -0.000253503, 0.533073, 599.770885, 214.394473)" fill-opacity="1" fill="#231f1f" fill-rule="nonzero" stroke-linejoin="round" d="M 5.353258 -1.724468 C 1.257109 -1.539325 -2.275232 -2.263097 -5.353613 -3.749176 C -4.57533 -0.517988 -1.657788 1.752241 1.882487 3.751045 C 1.882487 3.751045 5.353258 -1.724468 5.353258 -1.724468 Z M 5.353258 -1.724468 " stroke="#231f1f" stroke-width="2" stroke-opacity="1" stroke-miterlimit="4"/><path stroke-linecap="round" transform="matrix(0.533073, 0.000253503, -0.000253503, 0.533073, 625.149922, 243.499546)" fill-opacity="1" fill="#231f1f" fill-rule="nonzero" stroke-linejoin="round" d="M 17.462966 -7.804227 C 18.34379 -4.675678 12.779483 5.453981 3.130079 8.191837 C -6.511997 10.92969 -16.56844 5.233448 -17.456591 2.104902 C -18.344741 -1.023644 -9.910466 -1.056966 -0.268386 -3.787491 C 9.373689 -6.525344 16.574819 -10.925445 17.462966 -7.804227 Z M 17.462966 -7.804227 " stroke="#231f1f" stroke-width="2" stroke-opacity="1" stroke-miterlimit="4"/><path stroke-linecap="round" transform="matrix(0.533073, 0, 0, 0.533073, 512.000101, 68.243222)" fill-opacity="1" fill="#ffffff" fill-rule="nonzero" stroke-linejoin="round" d="M 71.497091 -5.834865 C 71.497091 14.580368 62.945556 32.987784 49.235255 46.016601 C 39.247472 56.34879 31.282161 66.746928 30.182992 77.328262 C 30.182992 77.328262 -30.241992 77.328262 -30.241992 77.328262 C -31.399783 66.299933 -39.980629 55.476782 -50.554635 44.719581 C -50.60593 44.675615 -50.642568 44.638976 -50.686535 44.587681 C -63.546813 31.661454 -71.497468 13.84026 -71.497468 -5.834865 C -71.497468 -45.324343 -39.482339 -77.324816 -0.000188751 -77.324816 C 39.481962 -77.324816 71.497091 -45.324343 71.497091 -5.834865 Z M 71.497091 -5.834865 " stroke="#231f1f" stroke-width="2" stroke-opacity="1" stroke-miterlimit="4"/><path stroke-linecap="round" transform="matrix(0.533073, 0, 0, 0.533073, 512.052347, 84.752495)" fill="none" stroke-linejoin="round" d="M -10.195898 48.996274 C -8.517833 26.741766 -8.144116 4.37734 -9.067418 -17.899151 C -9.455791 -27.315366 -10.115292 -36.900119 -13.31021 -45.620193 C -14.475329 -48.7858 -16.805568 -52.303141 -19.897896 -51.694934 C -21.869073 -51.306561 -23.297992 -49.181501 -23.53981 -47.012474 C -23.774299 -44.843447 -23.034192 -42.689076 -21.993645 -40.835144 C -19.216412 -35.910867 -14.380068 -32.752588 -9.375185 -30.825379 C -4.194435 -28.832219 1.43331 -27.967539 6.877861 -28.978775 C 12.322411 -29.997338 17.554455 -33.009061 20.976535 -37.764799 C 22.559338 -39.963137 23.775752 -42.733043 23.35074 -45.473638 C 22.9184 -48.206905 20.280395 -50.566454 17.869551 -49.657808 C 16.902282 -49.291418 16.118208 -48.485361 15.473362 -47.613353 C 13.047862 -44.286535 12.329739 -39.889859 11.846104 -35.691034 C 8.475319 -6.526416 12.278444 23.077869 9.420605 52.301109 " stroke="#231f1f" stroke-width="2" stroke-opacity="1" stroke-miterlimit="4"/><path stroke-linecap="butt" transform="matrix(0.533073, 0, 0, 0.533073, 511.836932, 112.045303)" fill-opacity="1" fill="#004aad" fill-rule="nonzero" stroke-linejoin="miter" d="M 31.419712 4.839292 C 31.419712 4.839292 -31.416116 4.839292 -31.416116 4.839292 C -31.416116 4.839292 -31.416116 -4.840723 -31.416116 -4.840723 C -31.416116 -4.840723 31.419712 -4.840723 31.419712 -4.840723 C 31.419712 -4.840723 31.419712 4.839292 31.419712 4.839292 Z M 31.419712 4.839292 " stroke="#231f1f" stroke-width="2" stroke-opacity="1" stroke-miterlimit="10"/><path stroke-linecap="butt" transform="matrix(0.533073, 0, 0, 0.533073, 511.836932, 121.905561)" fill-opacity="1" fill="#004aad" fill-rule="nonzero" stroke-linejoin="miter" d="M 31.419712 4.844964 C 31.419712 4.844964 -31.416116 4.844964 -31.416116 4.844964 C -31.416116 4.844964 -31.416116 -4.842379 -31.416116 -4.842379 C -31.416116 -4.842379 31.419712 -4.842379 31.419712 -4.842379 C 31.419712 -4.842379 31.419712 4.844964 31.419712 4.844964 Z M 31.419712 4.844964 " stroke="#231f1f" stroke-width="2" stroke-opacity="1" stroke-miterlimit="10"/><path stroke-linecap="butt" transform="matrix(0.533073, 0, 0, 0.533073, 511.836932, 116.978378)" fill-opacity="1" fill="#004aad" fill-rule="nonzero" stroke-linejoin="miter" d="M 33.361577 4.407926 C 33.361577 4.407926 -33.365309 4.407926 -33.365309 4.407926 C -33.365309 4.407926 -33.365309 -4.407409 -33.365309 -4.407409 C -33.365309 -4.407409 33.361577 -4.407409 33.361577 -4.407409 C 33.361577 -4.407409 33.361577 4.407926 33.361577 4.407926 Z M 33.361577 4.407926 " stroke="#231f1f" stroke-width="2" stroke-opacity="1" stroke-miterlimit="10"/><path stroke-linecap="butt" transform="matrix(0.533073, 0, 0, 0.533073, 511.836932, 127.065188)" fill-opacity="1" fill="#004aad" fill-rule="nonzero" stroke-linejoin="miter" d="M 27.865732 4.838629 C 27.865732 4.838629 -27.862136 4.838629 -27.862136 4.838629 C -27.862136 4.838629 -27.862136 -4.834059 -27.862136 -4.834059 C -27.862136 -4.834059 27.865732 -4.834059 27.865732 -4.834059 C 27.865732 -4.834059 27.865732 4.838629 27.865732 4.838629 Z M 27.865732 4.838629 " stroke="#231f1f" stroke-width="2" stroke-opacity="1" stroke-miterlimit="10"/><path stroke-linecap="butt" transform="matrix(0.533073, 0.000121822, -0.000121822, 0.533073, 386.798641, 332.804672)" fill-opacity="1" fill="#ffffff" fill-rule="nonzero" stroke-linejoin="miter" d="M -49.004205 0.2677 C -39.275914 -12.939207 -26.660092 -24.483364 -12.688449 -35.243758 C -10.790886 -36.70975 -8.556146 -37.750807 -6.174674 -38.015152 C -2.313026 -38.448375 0.325355 -36.807552 1.952888 -33.46645 C 4.342869 -28.564702 2.92263 -22.643521 -1.040852 -18.90544 C -1.040852 -18.90544 -15.092529 -5.646251 -15.092529 -5.646251 C -7.684387 -6.769096 -0.7528 -8.983674 5.826875 -11.974917 C 14.311575 -15.845931 20.882972 -22.992032 24.427651 -31.624982 C 24.46427 -31.712924 24.500891 -31.793538 24.53751 -31.88148 C 27.855151 -39.972122 39.191168 -40.319119 42.996091 -32.449938 C 43.435968 -31.534065 43.846542 -30.581545 44.220486 -29.592379 C 49.001094 -16.960356 45.882714 -2.692429 37.02574 7.495227 C 29.72185 15.894548 20.102099 23.077984 6.949928 28.408295 C 6.949928 28.408295 -33.152362 40.325124 -33.152362 40.325124 C -33.152362 40.325124 -49.004205 0.2677 -49.004205 0.2677 Z M -49.004205 0.2677 " stroke="#231f1f" stroke-width="2" stroke-opacity="1" stroke-miterlimit="10"/><path fill="#ffffff" d="M 287.402344 415.195312 C 269.421875 428.226562 247.734375 398.304688 265.714844 385.273438 C 265.714844 385.273438 361.769531 328.339844 361.769531 328.339844 C 361.769531 328.339844 374.363281 354.796875 374.363281 354.796875 C 374.363281 354.796875 287.402344 415.195312 287.402344 415.195312 Z M 287.402344 415.195312 " fill-opacity="1" fill-rule="nonzero"/><path stroke-linecap="butt" transform="matrix(0.533073, 0.000121822, -0.000121822, 0.533073, 330.886361, 371.768634)" fill="none" stroke-linejoin="miter" d="M 57.915584 -81.481958 C 57.915584 -81.481958 81.559059 -31.856217 81.559059 -31.856217 C 81.559059 -31.856217 -81.553703 81.483399 -81.553703 81.483399 " stroke="#231f1f" stroke-width="2" stroke-opacity="1" stroke-miterlimit="10"/><path stroke-linecap="round" transform="matrix(0.533073, 0.000121822, -0.000121822, 0.533073, 270.308956, 406.884302)" fill="none" stroke-linejoin="round" d="M -16.393673 -35.216423 C -32.066719 1.682598 -0.446955 35.214682 32.069305 15.583421 " stroke="#231f1f" stroke-width="2" stroke-opacity="1" stroke-miterlimit="4"/><path stroke-linecap="round" transform="matrix(0.533073, 0.000121822, -0.000121822, 0.533073, 323.455789, 351.048512)" fill="none" stroke-linejoin="round" d="M -71.866254 42.617143 C -71.866254 42.617143 71.863589 -42.615956 71.863589 -42.615956 " stroke="#231f1f" stroke-width="2" stroke-opacity="1" stroke-miterlimit="4"/><path stroke-linecap="round" transform="matrix(0.533073, 0.0000647154, -0.0000647154, 0.533073, 514.09627, 341.890151)" fill-opacity="1" fill="#ffffff" fill-rule="nonzero" stroke-linejoin="round" d="M 31.925725 26.816736 C 29.835628 13.011427 25.188086 -1.159961 19.331439 -15.499741 C 18.532472 -17.448837 17.389118 -19.251336 15.828127 -20.658083 C 13.321747 -22.922066 10.940183 -23.17825 8.654082 -21.771036 C 5.33484 -19.726179 4.067643 -15.512544 5.233214 -11.797494 C 5.233214 -11.797494 10.672542 5.546732 10.672542 5.546732 C 5.974875 1.004071 1.987946 -4.014984 -1.493407 -9.378506 C -5.978856 -16.295398 -8.002315 -24.429003 -7.431667 -32.006011 C -7.32924 -33.347009 -7.234138 -34.658696 -7.139033 -35.941071 C -6.729334 -41.363688 -12.145077 -45.510562 -17.179021 -43.450841 C -19.208719 -42.622554 -21.128452 -41.391251 -22.945547 -39.76426 C -29.246764 -34.121095 -31.920357 -25.459318 -30.629651 -17.105791 C -28.957601 -6.290171 -24.764734 4.994122 -16.336307 17.054647 C -16.336307 17.054647 7.072119 45.512954 7.072119 45.512954 " stroke="#231f1f" stroke-width="2" stroke-opacity="1" stroke-miterlimit="4"/><path fill="#ffffff" d="M 568.734375 407.300781 C 577.992188 418.132812 561.609375 432.136719 552.351562 421.308594 C 552.351562 421.308594 517.863281 366.152344 517.863281 366.152344 C 517.863281 366.152344 531.113281 356.191406 531.113281 356.191406 C 531.113281 356.191406 568.734375 407.300781 568.734375 407.300781 Z M 568.734375 407.300781 " fill-opacity="1" fill-rule="nonzero"/><path stroke-linecap="round" transform="matrix(0.533073, 0.0000647154, -0.0000647154, 0.533073, 544.224868, 374.005091)" fill="none" stroke-linejoin="round" d="M 24.606637 33.416856 C 24.606637 33.416856 -24.607609 -33.421301 -24.607609 -33.421301 " stroke="#231f1f" stroke-width="2" stroke-opacity="1" stroke-miterlimit="4"/><path stroke-linecap="round" transform="matrix(0.533073, 0.0000647154, -0.0000647154, 0.533073, 544.864876, 397.124568)" fill="none" stroke-linejoin="round" d="M 50.658417 36.018093 C 43.889642 53.37113 25.570732 58.092452 14.049896 45.365474 C 14.049896 45.365474 -50.659752 -58.095112 -50.659752 -58.095112 " stroke="#231f1f" stroke-width="2" stroke-opacity="1" stroke-miterlimit="4"/><path stroke-linecap="round" transform="matrix(0.533073, -0.0000647154, 0.0000647154, 0.533073, 758.91852, 355.994838)" fill-opacity="1" fill="#ffffff" fill-rule="nonzero" stroke-linejoin="round" d="M -36.305325 19.797647 C -31.635923 6.637497 -24.379825 -6.397767 -15.907321 -19.366932 C -14.763972 -21.125464 -13.290896 -22.686105 -11.495455 -23.770401 C -8.600765 -25.514064 -6.211929 -25.308596 -4.233645 -23.498391 C -1.368797 -20.867365 -0.922335 -16.477963 -2.769354 -13.056107 C -2.769354 -13.056107 -11.403436 2.939417 -11.403436 2.939417 C -5.929142 -0.628554 -1.062981 -4.797477 3.370894 -9.406121 C 9.094622 -15.348266 12.620213 -22.94676 13.500465 -30.501608 C 13.654511 -31.835248 13.808553 -33.139576 13.955263 -34.414595 C 14.578781 -39.815103 20.690531 -42.862723 25.240729 -39.887086 C 27.072532 -38.685106 28.728422 -37.109429 30.201072 -35.167385 C 35.315055 -28.432522 36.303213 -19.426544 33.444407 -11.46158 C 29.749948 -1.159151 23.490765 9.120983 12.930171 19.363956 C 12.930171 19.363956 -15.453225 42.860744 -15.453225 42.860744 " stroke="#231f1f" stroke-width="2" stroke-opacity="1" stroke-miterlimit="4"/><path fill="#ffffff" d="M 692.929688 409.59375 C 681.785156 418.472656 695.214844 435.332031 706.359375 426.453125 C 706.359375 426.453125 750.683594 378.84375 750.683594 378.84375 C 750.683594 378.84375 739.566406 366.550781 739.566406 366.550781 C 739.566406 366.550781 692.929688 409.59375 692.929688 409.59375 Z M 692.929688 409.59375 " fill-opacity="1" fill-rule="nonzero"/><path stroke-linecap="round" transform="matrix(0.533073, -0.0000647154, 0.0000647154, 0.533073, 723.311835, 381.553614)" fill="none" stroke-linejoin="round" d="M -30.500444 28.144365 C -30.500444 28.144365 30.495613 -28.140338 30.495613 -28.140338 " stroke="#231f1f" stroke-width="2" stroke-opacity="1" stroke-miterlimit="4"/><path stroke-linecap="round" transform="matrix(0.533073, -0.0000647154, 0.0000647154, 0.533073, 719.414193, 405.400555)" fill="none" stroke-linejoin="round" d="M -58.669396 23.371895 C -55.308162 41.691786 -38.220734 49.813055 -24.494524 39.489861 C -24.494524 39.489861 58.664788 -49.811189 58.664788 -49.811189 " stroke="#231f1f" stroke-width="2" stroke-opacity="1" stroke-miterlimit="4"/><path stroke-linecap="round" transform="matrix(0.533073, 0, 0, 0.533073, 509.397107, 474.374665)" fill-opacity="1" fill="#ffffff" fill-rule="nonzero" stroke-linejoin="round" d="M 513.534252 50.694302 C 513.534252 50.694302 -513.536589 50.694302 -513.536589 50.694302 C -513.536589 50.694302 -415.864431 -50.693047 -415.864431 -50.693047 C -415.864431 -50.693047 440.476153 -50.693047 440.476153 -50.693047 C 440.476153 -50.693047 513.534252 50.694302 513.534252 50.694302 Z M 513.534252 50.694302 " stroke="#231f1f" stroke-width="2" stroke-opacity="1" stroke-miterlimit="4"/><path stroke-linecap="round" transform="matrix(0.533073, 0, 0, 0.533073, 368.541039, 476.924357)" fill-opacity="1" fill="#ffffff" fill-rule="nonzero" stroke-linejoin="round" d="M -88.853202 33.791127 C -88.853202 33.791127 -32.172721 -35.742304 -32.172721 -35.742304 C -32.172721 -35.742304 88.853114 -35.742304 88.853114 -35.742304 C 88.853114 -35.742304 50.550738 35.747648 50.550738 35.747648 C 50.550738 35.747648 -88.853202 33.791127 -88.853202 33.791127 Z M -88.853202 33.791127 " stroke="#231f1f" stroke-width="2" stroke-opacity="1" stroke-miterlimit="4"/><path stroke-linecap="round" transform="matrix(0.533073, 0, 0, 0.533073, 232.98107, 444.687307)" fill="none" stroke-linejoin="round" d="M 194.214706 78.854745 C 194.214706 78.854745 292.509726 78.854745 292.509726 78.854745 " stroke="#231f1f" stroke-width="2" stroke-opacity="1" stroke-miterlimit="4"/><path stroke-linecap="round" transform="matrix(0.533073, 0, 0, 0.533073, 232.98107, 444.687307)" fill="none" stroke-linejoin="round" d="M 208.511231 63.026712 C 208.511231 63.026712 306.813578 63.026712 306.813578 63.026712 " stroke="#231f1f" stroke-width="2" stroke-opacity="1" stroke-miterlimit="4"/><path stroke-linecap="round" transform="matrix(0.533073, 0, 0, 0.533073, 232.98107, 444.687307)" fill="none" stroke-linejoin="round" d="M 199.278211 70.684256 C 199.278211 70.684256 302.871226 70.684256 302.871226 70.684256 " stroke="#231f1f" stroke-width="2" stroke-opacity="1" stroke-miterlimit="4"/><path stroke-linecap="round" transform="matrix(0.533073, 0, 0, 0.533073, 376.820747, 467.260794)" fill-opacity="1" fill="#004aad" fill-rule="nonzero" stroke-linejoin="round" d="M -42.72185 -9.700263 C -42.72185 -9.700263 -57.406748 9.703734 -57.406748 9.703734 C -57.406748 9.703734 44.464235 9.703734 44.464235 9.703734 C 44.464235 9.703734 57.405118 -9.700263 57.405118 -9.700263 C 57.405118 -9.700263 -42.72185 -9.700263 -42.72185 -9.700263 Z M -42.72185 -9.700263 " stroke="#231f1f" stroke-width="2" stroke-opacity="1" stroke-miterlimit="4"/><path stroke-linecap="round" transform="matrix(0.533073, 0, 0, 0.533073, 348.579043, 472.432669)" fill-opacity="1" fill="#ffffff" fill-rule="nonzero" stroke-linejoin="round" d="M -88.851216 33.797517 C -88.851216 33.797517 -32.170735 -35.743242 -32.170735 -35.743242 C -32.170735 -35.743242 88.847772 -35.743242 88.847772 -35.743242 C 88.847772 -35.743242 50.552724 35.74671 50.552724 35.74671 C 50.552724 35.74671 -88.851216 33.797517 -88.851216 33.797517 Z M -88.851216 33.797517 " stroke="#231f1f" stroke-width="2" stroke-opacity="1" stroke-miterlimit="4"/><path stroke-linecap="round" transform="matrix(0.533073, 0, 0, 0.533073, 232.98107, 444.687307)" fill="none" stroke-linejoin="round" d="M 156.769682 70.427783 C 156.769682 70.427783 255.064702 70.427783 255.064702 70.427783 " stroke="#231f1f" stroke-width="2" stroke-opacity="1" stroke-miterlimit="4"/><path stroke-linecap="round" transform="matrix(0.533073, 0, 0, 0.533073, 232.98107, 444.687307)" fill="none" stroke-linejoin="round" d="M 171.066207 54.59975 C 171.066207 54.59975 269.361227 54.59975 269.361227 54.59975 " stroke="#231f1f" stroke-width="2" stroke-opacity="1" stroke-miterlimit="4"/><path stroke-linecap="round" transform="matrix(0.533073, 0, 0, 0.533073, 232.98107, 444.687307)" fill="none" stroke-linejoin="round" d="M 161.833187 62.264621 C 161.833187 62.264621 265.426202 62.264621 265.426202 62.264621 " stroke="#231f1f" stroke-width="2" stroke-opacity="1" stroke-miterlimit="4"/><path stroke-linecap="round" transform="matrix(0.533073, 0, 0, 0.533073, 232.98107, 444.687307)" fill="none" stroke-linejoin="round" d="M 175.616767 43.879188 C 175.616767 43.879188 273.919114 43.879188 273.919114 43.879188 " stroke="#231f1f" stroke-width="2" stroke-opacity="1" stroke-miterlimit="4"/><path stroke-linecap="round" transform="matrix(0.533073, 0, 0, 0.533073, 232.98107, 444.687307)" fill="none" stroke-linejoin="round" d="M 189.913291 28.051154 C 189.913291 28.051154 288.215639 28.051154 288.215639 28.051154 " stroke="#231f1f" stroke-width="2" stroke-opacity="1" stroke-miterlimit="4"/><path stroke-linecap="round" transform="matrix(0.533073, 0, 0, 0.533073, 232.98107, 444.687307)" fill="none" stroke-linejoin="round" d="M 180.680272 35.708698 C 180.680272 35.708698 284.280614 35.708698 284.280614 35.708698 " stroke="#231f1f" stroke-width="2" stroke-opacity="1" stroke-miterlimit="4"/><path stroke-linecap="round" transform="matrix(0.533073, 0, 0, 0.533073, 578.027634, 474.678525)" fill-opacity="1" fill="#ffffff" fill-rule="nonzero" stroke-linejoin="round" d="M -252.252501 -31.529314 C -252.252501 -31.529314 245.106815 -31.529314 245.106815 -31.529314 C 245.106815 -31.529314 282.896246 31.533675 282.896246 31.533675 C 282.896246 31.533675 -282.890005 31.533675 -282.890005 31.533675 C -282.890005 31.533675 -252.252501 -31.529314 -252.252501 -31.529314 Z M -252.252501 -31.529314 " stroke="#231f1f" stroke-width="2" stroke-opacity="1" stroke-miterlimit="4"/><path fill="#ffffff" d="M 447.640625 462.089844 C 447.640625 462.089844 435.933594 486.722656 435.933594 486.722656 C 435.933594 486.722656 536.652344 486.722656 536.652344 486.722656 C 536.652344 486.722656 540.191406 462.089844 540.191406 462.089844 C 540.191406 462.089844 447.640625 462.089844 447.640625 462.089844 Z M 447.640625 462.089844 " fill-opacity="1" fill-rule="nonzero"/><path stroke-linecap="round" transform="matrix(0.533073, 0, 0, 0.533073, 448.552676, 463.533037)" fill="none" stroke-linejoin="round" d="M 4.290532 -2.707308 C 4.290532 -2.707308 -1.710931 -2.707308 -1.710931 -2.707308 C -1.710931 -2.707308 -4.290314 2.707931 -4.290314 2.707931 " stroke="#231f1f" stroke-width="2" stroke-opacity="1" stroke-miterlimit="4"/><path fill="#231f1f" d="M 443.761719 471.492188 L 441.523438 476.207031 L 440.722656 477.886719 C 440.660156 478.019531 440.558594 478.109375 440.421875 478.160156 C 440.28125 478.210938 440.148438 478.203125 440.015625 478.140625 C 439.882812 478.078125 439.789062 477.976562 439.742188 477.835938 C 439.691406 477.699219 439.699219 477.5625 439.761719 477.429688 L 440.558594 475.75 L 442.800781 471.035156 C 442.863281 470.902344 442.964844 470.808594 443.101562 470.761719 C 443.242188 470.710938 443.375 470.71875 443.511719 470.78125 C 443.644531 470.84375 443.734375 470.945312 443.785156 471.085938 C 443.832031 471.222656 443.824219 471.359375 443.761719 471.492188 Z M 443.761719 471.492188 " fill-opacity="1" fill-rule="nonzero"/><path stroke-linecap="round" transform="matrix(0.533073, 0, 0, 0.533073, 437.53459, 485.279191)" fill="none" stroke-linejoin="round" d="M -0.42395 -2.707421 C -0.42395 -2.707421 -3.003333 2.707818 -3.003333 2.707818 C -3.003333 2.707818 2.99813 2.707818 2.99813 2.707818 " stroke="#231f1f" stroke-width="2" stroke-opacity="1" stroke-miterlimit="4"/><path fill="#231f1f" d="M 445.421875 486.191406 L 451.550781 486.191406 C 451.699219 486.191406 451.824219 486.242188 451.929688 486.347656 C 452.03125 486.449219 452.085938 486.574219 452.085938 486.722656 C 452.085938 486.871094 452.03125 486.996094 451.929688 487.101562 C 451.824219 487.203125 451.699219 487.257812 451.550781 487.257812 L 445.421875 487.257812 C 445.273438 487.257812 445.148438 487.203125 445.042969 487.101562 C 444.941406 486.996094 444.886719 486.871094 444.886719 486.722656 C 444.886719 486.574219 444.941406 486.449219 445.042969 486.347656 C 445.148438 486.242188 445.273438 486.191406 445.421875 486.191406 Z M 457.9375 486.191406 L 464.238281 486.191406 C 464.386719 486.191406 464.511719 486.242188 464.617188 486.347656 C 464.71875 486.449219 464.773438 486.574219 464.773438 486.722656 C 464.773438 486.871094 464.71875 486.996094 464.617188 487.101562 C 464.511719 487.203125 464.386719 487.257812 464.238281 487.257812 L 457.9375 487.257812 C 457.789062 487.257812 457.664062 487.203125 457.558594 487.101562 C 457.457031 486.996094 457.40625 486.871094 457.40625 486.722656 C 457.40625 486.574219 457.457031 486.449219 457.558594 486.347656 C 457.664062 486.242188 457.789062 486.191406 457.9375 486.191406 Z M 470.519531 486.191406 L 476.746094 486.191406 C 476.890625 486.191406 477.015625 486.242188 477.121094 486.347656 C 477.226562 486.449219 477.277344 486.574219 477.277344 486.722656 C 477.277344 486.871094 477.226562 486.996094 477.121094 487.101562 C 477.015625 487.203125 476.890625 487.257812 476.746094 487.257812 L 470.519531 487.257812 C 470.371094 487.257812 470.246094 487.203125 470.140625 487.101562 C 470.039062 486.996094 469.988281 486.871094 469.988281 486.722656 C 469.988281 486.574219 470.039062 486.449219 470.140625 486.347656 C 470.246094 486.242188 470.371094 486.191406 470.519531 486.191406 Z M 483.058594 486.191406 L 489.472656 486.191406 C 489.617188 486.191406 489.746094 486.242188 489.847656 486.347656 C 489.953125 486.449219 490.003906 486.574219 490.003906 486.722656 C 490.003906 486.871094 489.953125 486.996094 489.847656 487.101562 C 489.746094 487.203125 489.617188 487.257812 489.472656 487.257812 L 483.058594 487.257812 C 482.910156 487.257812 482.785156 487.203125 482.683594 487.101562 C 482.578125 486.996094 482.527344 486.871094 482.527344 486.722656 C 482.527344 486.574219 482.578125 486.449219 482.683594 486.347656 C 482.785156 486.242188 482.910156 486.191406 483.058594 486.191406 Z M 495.851562 486.191406 L 502.066406 486.191406 C 502.214844 486.191406 502.339844 486.242188 502.445312 486.347656 C 502.546875 486.449219 502.601562 486.574219 502.601562 486.722656 C 502.601562 486.871094 502.546875 486.996094 502.445312 487.101562 C 502.339844 487.203125 502.214844 487.257812 502.066406 487.257812 L 495.851562 487.257812 C 495.703125 487.257812 495.578125 487.203125 495.472656 487.101562 C 495.371094 486.996094 495.316406 486.871094 495.316406 486.722656 C 495.316406 486.574219 495.371094 486.449219 495.472656 486.347656 C 495.578125 486.242188 495.703125 486.191406 495.851562 486.191406 Z M 508.371094 486.191406 L 514.695312 486.191406 C 514.84375 486.191406 514.96875 486.242188 515.070312 486.347656 C 515.175781 486.449219 515.226562 486.574219 515.226562 486.722656 C 515.226562 486.871094 515.175781 486.996094 515.070312 487.101562 C 514.96875 487.203125 514.84375 487.257812 514.695312 487.257812 L 508.371094 487.257812 C 508.226562 487.257812 508.097656 487.203125 507.996094 487.101562 C 507.890625 486.996094 507.839844 486.871094 507.839844 486.722656 C 507.839844 486.574219 507.890625 486.449219 507.996094 486.347656 C 508.097656 486.242188 508.226562 486.191406 508.371094 486.191406 Z M 520.996094 486.191406 L 527.210938 486.191406 C 527.355469 486.191406 527.480469 486.242188 527.585938 486.347656 C 527.691406 486.449219 527.742188 486.574219 527.742188 486.722656 C 527.742188 486.871094 527.691406 486.996094 527.585938 487.101562 C 527.480469 487.203125 527.355469 487.257812 527.210938 487.257812 L 520.996094 487.257812 C 520.851562 487.257812 520.722656 487.203125 520.621094 487.101562 C 520.515625 486.996094 520.464844 486.871094 520.464844 486.722656 C 520.464844 486.574219 520.515625 486.449219 520.621094 486.347656 C 520.722656 486.242188 520.851562 486.191406 520.996094 486.191406 Z M 520.996094 486.191406 " fill-opacity="1" fill-rule="nonzero"/><path stroke-linecap="round" transform="matrix(0.533073, 0, 0, 0.533073, 535.279922, 485.140635)" fill="none" stroke-linejoin="round" d="M -3.426916 2.967738 C -3.426916 2.967738 2.574546 2.967738 2.574546 2.967738 C 2.574546 2.967738 3.424571 -2.967774 3.424571 -2.967774 " stroke="#231f1f" stroke-width="2" stroke-opacity="1" stroke-miterlimit="4"/><path fill="#231f1f" d="M 537.457031 477.378906 L 538.113281 472.804688 L 538.347656 471.171875 C 538.367188 471.027344 538.4375 470.910156 538.554688 470.824219 C 538.671875 470.734375 538.804688 470.699219 538.949219 470.722656 C 539.097656 470.742188 539.214844 470.8125 539.300781 470.929688 C 539.390625 471.046875 539.421875 471.179688 539.402344 471.324219 L 539.167969 472.957031 L 538.511719 477.53125 C 538.488281 477.679688 538.421875 477.792969 538.300781 477.882812 C 538.183594 477.972656 538.054688 478.003906 537.90625 477.984375 C 537.761719 477.964844 537.644531 477.894531 537.554688 477.777344 C 537.46875 477.65625 537.433594 477.527344 537.457031 477.378906 Z M 537.457031 477.378906 " fill-opacity="1" fill-rule="nonzero"/><path stroke-linecap="round" transform="matrix(0.533073, 0, 0, 0.533073, 538.591386, 463.671617)" fill="none" stroke-linejoin="round" d="M 2.144151 2.96824 C 2.144151 2.96824 3.001502 -2.967273 3.001502 -2.967273 C 3.001502 -2.967273 -2.99996 -2.967273 -2.99996 -2.967273 " stroke="#231f1f" stroke-width="2" stroke-opacity="1" stroke-miterlimit="4"/><path fill="#231f1f" d="M 530.363281 462.621094 L 523.796875 462.621094 C 523.648438 462.621094 523.523438 462.570312 523.417969 462.464844 C 523.316406 462.363281 523.261719 462.234375 523.261719 462.089844 C 523.261719 461.941406 523.316406 461.816406 523.417969 461.710938 C 523.523438 461.609375 523.648438 461.554688 523.796875 461.554688 L 530.363281 461.554688 C 530.511719 461.554688 530.636719 461.609375 530.742188 461.710938 C 530.847656 461.816406 530.898438 461.941406 530.898438 462.089844 C 530.898438 462.234375 530.847656 462.363281 530.742188 462.464844 C 530.636719 462.570312 530.511719 462.621094 530.363281 462.621094 Z M 517.183594 462.621094 L 510.546875 462.621094 C 510.402344 462.621094 510.273438 462.570312 510.171875 462.464844 C 510.066406 462.363281 510.015625 462.234375 510.015625 462.089844 C 510.015625 461.941406 510.066406 461.816406 510.171875 461.710938 C 510.273438 461.609375 510.402344 461.554688 510.546875 461.554688 L 517.183594 461.554688 C 517.328125 461.554688 517.457031 461.609375 517.558594 461.710938 C 517.664062 461.816406 517.714844 461.941406 517.714844 462.089844 C 517.714844 462.234375 517.664062 462.363281 517.558594 462.464844 C 517.457031 462.570312 517.328125 462.621094 517.183594 462.621094 Z M 503.933594 462.621094 L 497.320312 462.621094 C 497.175781 462.621094 497.046875 462.570312 496.945312 462.464844 C 496.839844 462.363281 496.789062 462.234375 496.789062 462.089844 C 496.789062 461.941406 496.839844 461.816406 496.945312 461.710938 C 497.046875 461.609375 497.175781 461.554688 497.320312 461.554688 L 503.933594 461.554688 C 504.082031 461.554688 504.207031 461.609375 504.308594 461.710938 C 504.414062 461.816406 504.464844 461.941406 504.464844 462.089844 C 504.464844 462.234375 504.414062 462.363281 504.308594 462.464844 C 504.207031 462.570312 504.082031 462.621094 503.933594 462.621094 Z M 490.566406 462.621094 L 483.859375 462.621094 C 483.714844 462.621094 483.585938 462.570312 483.484375 462.464844 C 483.378906 462.363281 483.328125 462.234375 483.328125 462.089844 C 483.328125 461.941406 483.378906 461.816406 483.484375 461.710938 C 483.585938 461.609375 483.714844 461.554688 483.859375 461.554688 L 490.566406 461.554688 C 490.714844 461.554688 490.839844 461.609375 490.945312 461.710938 C 491.046875 461.816406 491.101562 461.941406 491.101562 462.089844 C 491.101562 462.234375 491.046875 462.363281 490.945312 462.464844 C 490.839844 462.570312 490.714844 462.621094 490.566406 462.621094 Z M 477.316406 462.621094 L 470.660156 462.621094 C 470.515625 462.621094 470.390625 462.570312 470.285156 462.464844 C 470.179688 462.363281 470.128906 462.234375 470.128906 462.089844 C 470.128906 461.941406 470.179688 461.816406 470.285156 461.710938 C 470.390625 461.609375 470.515625 461.554688 470.660156 461.554688 L 477.316406 461.554688 C 477.460938 461.554688 477.589844 461.609375 477.691406 461.710938 C 477.796875 461.816406 477.847656 461.941406 477.847656 462.089844 C 477.847656 462.234375 477.796875 462.363281 477.691406 462.464844 C 477.589844 462.570312 477.460938 462.621094 477.316406 462.621094 Z M 463.972656 462.621094 L 457.460938 462.621094 C 457.3125 462.621094 457.1875 462.570312 457.082031 462.464844 C 456.980469 462.363281 456.925781 462.234375 456.925781 462.089844 C 456.925781 461.941406 456.980469 461.816406 457.082031 461.710938 C 457.1875 461.609375 457.3125 461.554688 457.460938 461.554688 L 463.972656 461.554688 C 464.121094 461.554688 464.246094 461.609375 464.351562 461.710938 C 464.453125 461.816406 464.507812 461.941406 464.507812 462.089844 C 464.507812 462.234375 464.453125 462.363281 464.351562 462.464844 C 464.246094 462.570312 464.121094 462.621094 463.972656 462.621094 Z M 463.972656 462.621094 " fill-opacity="1" fill-rule="nonzero"/><path stroke-linecap="round" transform="matrix(0.533073, 0, 0, 0.533073, 232.98107, 444.687307)" fill="none" stroke-linejoin="round" d="M 591.109976 42.347679 C 591.109976 42.347679 693.237432 42.347679 693.237432 42.347679 " stroke="#231f1f" stroke-width="2" stroke-opacity="1" stroke-miterlimit="4"/><path stroke-linecap="butt" transform="matrix(0.533073, 0, 0, 0.533073, 232.98107, 444.687307)" fill="none" stroke-linejoin="miter" d="M 591.109976 53.837659 C 591.109976 53.837659 693.237432 53.837659 693.237432 53.837659 " stroke="#231f1f" stroke-width="2" stroke-opacity="1" stroke-miterlimit="10"/><path stroke-linecap="butt" transform="matrix(0.533073, 0, 0, 0.533073, 232.98107, 444.687307)" fill="none" stroke-linejoin="miter" d="M 588.046959 68.471262 C 588.046959 68.471262 697.663419 68.471262 697.663419 68.471262 " stroke="#231f1f" stroke-width="2" stroke-opacity="1" stroke-miterlimit="10"/><path stroke-linecap="round" transform="matrix(0.533073, 0, 0, 0.533073, 486.29372, 474.74622)" fill-opacity="1" fill="#ffffff" fill-rule="nonzero" stroke-linejoin="round" d="M -66.215349 -14.040289 C -66.215349 -14.040289 -77.785935 14.039815 -77.785935 14.039815 C -77.785935 14.039815 -18.577364 14.039815 -18.577364 14.039815 C -18.577364 14.039815 -15.147957 -2.550309 -15.147957 -2.550309 C -15.147957 -2.550309 75.745991 -2.550309 75.745991 -2.550309 C 75.745991 -2.550309 77.790446 -14.040289 77.790446 -14.040289 " stroke="#231f1f" stroke-width="2" stroke-opacity="1" stroke-miterlimit="4"/><path stroke-linecap="butt" transform="matrix(0.533073, 0, 0, 0.533073, 509.397635, 510.12041)" fill-opacity="1" fill="#ffffff" fill-rule="nonzero" stroke-linejoin="round" d="M 513.533262 16.364244 C 513.533262 16.364244 -513.530251 16.364244 -513.530251 16.364244 C -513.530251 16.364244 -513.530251 -16.361681 -513.530251 -16.361681 C -513.530251 -16.361681 513.533262 -16.361681 513.533262 -16.361681 C 513.533262 -16.361681 513.533262 16.364244 513.533262 16.364244 Z M 513.533262 16.364244 " stroke="#231f1f" stroke-width="2" stroke-opacity="1" stroke-miterlimit="4"/><path stroke-linecap="round" transform="matrix(0.533073, 0, 0, 0.533073, 669.744444, 468.894132)" fill-opacity="1" fill="#ffffff" fill-rule="nonzero" stroke-linejoin="round" d="M 88.852589 33.796531 C 88.852589 33.796531 32.172107 -35.744228 32.172107 -35.744228 C 32.172107 -35.744228 -88.853727 -35.744228 -88.853727 -35.744228 C -88.853727 -35.744228 -50.551351 35.745724 -50.551351 35.745724 C -50.551351 35.745724 88.852589 33.796531 88.852589 33.796531 Z M 88.852589 33.796531 " stroke="#231f1f" stroke-width="2" stroke-opacity="1" stroke-miterlimit="4"/><path stroke-linecap="round" transform="matrix(0.533073, 0, 0, 0.533073, 232.98107, 444.687307)" fill="none" stroke-linejoin="round" d="M 879.414677 63.79613 C 879.414677 63.79613 781.119657 63.79613 781.119657 63.79613 " stroke="#231f1f" stroke-width="2" stroke-opacity="1" stroke-miterlimit="4"/><path stroke-linecap="round" transform="matrix(0.533073, 0, 0, 0.533073, 232.98107, 444.687307)" fill="none" stroke-linejoin="round" d="M 865.118152 47.960769 C 865.118152 47.960769 766.823133 47.960769 766.823133 47.960769 " stroke="#231f1f" stroke-width="2" stroke-opacity="1" stroke-miterlimit="4"/><path stroke-linecap="round" transform="matrix(0.533073, 0, 0, 0.533073, 232.98107, 444.687307)" fill="none" stroke-linejoin="round" d="M 874.351172 55.625641 C 874.351172 55.625641 770.758158 55.625641 770.758158 55.625641 " stroke="#231f1f" stroke-width="2" stroke-opacity="1" stroke-miterlimit="4"/><path stroke-linecap="round" transform="matrix(0.533073, 0, 0, 0.533073, 661.464717, 459.230593)" fill-opacity="1" fill="#004aad" fill-rule="nonzero" stroke-linejoin="round" d="M 42.721272 -9.702231 C 42.721272 -9.702231 57.40617 9.701765 57.40617 9.701765 C 57.40617 9.701765 -44.464813 9.701765 -44.464813 9.701765 C -44.464813 9.701765 -57.405696 -9.702231 -57.405696 -9.702231 C -57.405696 -9.702231 42.721272 -9.702231 42.721272 -9.702231 Z M 42.721272 -9.702231 " stroke="#231f1f" stroke-width="2" stroke-opacity="1" stroke-miterlimit="4"/><path stroke-linecap="round" transform="matrix(0.533073, 0, 0, 0.533073, 717.108534, 474.678525)" fill-opacity="1" fill="#ffffff" fill-rule="nonzero" stroke-linejoin="round" d="M 88.851071 33.790636 C 88.851071 33.790636 32.17059 -35.742795 32.17059 -35.742795 C 32.17059 -35.742795 -88.847917 -35.742795 -88.847917 -35.742795 C -88.847917 -35.742795 -50.552869 35.747156 -50.552869 35.747156 C -50.552869 35.747156 88.851071 33.790636 88.851071 33.790636 Z M 88.851071 33.790636 " stroke="#231f1f" stroke-width="2" stroke-opacity="1" stroke-miterlimit="4"/><path stroke-linecap="round" transform="matrix(0.533073, 0, 0, 0.533073, 232.98107, 444.687307)" fill="none" stroke-linejoin="round" d="M 968.264171 74.641264 C 968.264171 74.641264 869.969151 74.641264 869.969151 74.641264 " stroke="#231f1f" stroke-width="2" stroke-opacity="1" stroke-miterlimit="4"/><path stroke-linecap="round" transform="matrix(0.533073, 0, 0, 0.533073, 232.98107, 444.687307)" fill="none" stroke-linejoin="round" d="M 953.967646 58.813231 C 953.967646 58.813231 855.672627 58.813231 855.672627 58.813231 " stroke="#231f1f" stroke-width="2" stroke-opacity="1" stroke-miterlimit="4"/><path stroke-linecap="round" transform="matrix(0.533073, 0, 0, 0.533073, 232.98107, 444.687307)" fill="none" stroke-linejoin="round" d="M 963.200666 66.470775 C 963.200666 66.470775 859.607652 66.470775 859.607652 66.470775 " stroke="#231f1f" stroke-width="2" stroke-opacity="1" stroke-miterlimit="4"/><path stroke-linecap="round" transform="matrix(0.533073, 0, 0, 0.533073, 232.98107, 444.687307)" fill="none" stroke-linejoin="round" d="M 949.417087 48.092669 C 949.417087 48.092669 851.114739 48.092669 851.114739 48.092669 " stroke="#231f1f" stroke-width="2" stroke-opacity="1" stroke-miterlimit="4"/><path stroke-linecap="round" transform="matrix(0.533073, 0, 0, 0.533073, 232.98107, 444.687307)" fill="none" stroke-linejoin="round" d="M 935.120562 32.264635 C 935.120562 32.264635 836.818214 32.264635 836.818214 32.264635 " stroke="#231f1f" stroke-width="2" stroke-opacity="1" stroke-miterlimit="4"/><path stroke-linecap="round" transform="matrix(0.533073, 0, 0, 0.533073, 232.98107, 444.687307)" fill="none" stroke-linejoin="round" d="M 944.353582 39.92218 C 944.353582 39.92218 840.753239 39.92218 840.753239 39.92218 " stroke="#231f1f" stroke-width="2" stroke-opacity="1" stroke-miterlimit="4"/></svg>